<svg width="96" height="90" viewBox="0 0 96 90" fill="none" xmlns="http://www.w3.org/2000/svg"><path fill-rule="evenodd" clip-rule="evenodd" d="M4.755 67.433c2.435-1.5 5.192-4.14 7.826-5.21l9.757 13.939c1.2 1.65 2.567 3.136 3.35 5.063-2.466 1.103-4.876 3.414-7.375 4.97l-.452-.43c-.044-.046-.163-.164-.215-.222l-12.89-18.11h-.001zM56.79 0l-.45 2.354.075 4.265c0 2.287.969 2.778 2.84 2.312l.287-2.306-.049-4.258-.265-2.215L56.79 0zM45.723 1.757c-.449 2.61 1.246 3.272 2.573 4.597.803.803 2.824 3.91 4.403 2.384 1.6-1.546-1.5-3.73-2.28-4.511-1.033-1.036-2.65-3.539-4.696-2.47zM17.385 77.08c-3.522 2.194-.702 7.351 3.088 5.303 3.345-1.808.662-7.639-3.088-5.303zM70.452.799c-2.35-.128-3.6 1.967-4.962 3.321-.612.61-4.793 3.997-1.659 4.959 1.59.487 3.903-2.537 4.844-3.469 1.517-1.499 3.515-2.615 1.778-4.812zM82.154 66.9c1.36-1.224 3.226-2.214 4.685-3.122 1.13-.705 4.006-3.253 5.001-2.361 4.127 3.697-7.879 5.49-9.686 5.483zM41.532 54.674c3.39 0 6.89.413 9.655-1.077 1.907-1.029 1.21-1.183 3.768-.808 7.445 1.089 7.775-1.364 14.304-1.316 3.559.026 6.444.263 7.203 3.201-1.763 1.15-5.333 2.325-7.407 3.2-4.25 1.79-4.094 1.48-9.137 1.477-6.978-.004-13.956 0-21.018-.048l2.632-4.629zM31.056 50.86c4.866-3.592 4.631-4.107 8.904-4.064 4.33.044 8.672.012 13.004.012-1.704 6.103-7.13 4.238-13.158 4.835-1.363 2.136-5.436 7.944-5.084 10.532 5.907.8 22.858.365 29.865.365 2.26 0 18.193-6.884 22.203-8.594 2.484-1.058 5.844-2.527 5.988 1.578-.95 1.767-2.993 2.65-4.598 3.648-1.697 1.057-3.252 2.145-4.888 3.173l-14.766 9.464c-5.57 3.692-9.643 6.36-17.949 6.36-15.581 0-8.671.284-22.609-2.547-2.4-.489-2.263-.117-3.422-1.676L18.2 64.994c-.995-1.428-1.52-1.712-1.948-3.092L31.056 50.86zm14.428-21.807c5.553 2.55 7.727 2.5 14.069 1.024 9.596-2.233 10.98-3.54 10.995 2.038.025 10.179-3.351 19.338-14.531 17.668-.23-.518-.173-.061-.166-.968.014-2.136 1.5-2.719-.176-5.026-9.82-.084-10.191 2.159-10.191-14.736zm-.514-4.147c1.365-6.751 5.741-7.864 13.25-7.868 7.533-.006 11.802 1.55 12.868 8.532-9.946-2.055-16.796 6.755-26.118-.664zm24.368 23.415c.559-1.307 1.654-2.647 2.442-4.312 2.142-4.524 2.548-12.01 2.57-16.979.03-7.24-5.529-13.075-12.787-13.075-7.407 0-16.999-.966-19.616 9.952-1.307 5.452.666 14.744 1.917 19.816-3.871 0-7.628-.732-10.14 1.297-2.744 2.218-18.194 13.015-19.153 14.318-1.859-.885-2.127-1.248-4.117.208C-1.176 68.061-.8 65.205 4.704 72.98l12.15 17.018c2.292.06 3.015-.893 4.533-2.055 7.26-5.558 9.132-4.946 7.062-8.948 3.262.536 8.487 2.257 11.516 2.257h11.462c13.379 0 17.95-8.006 24.258-9.51 9.059-2.157 24.96-3.091 18.605-12.39.852-1.837 2.313-3.07 1.426-6.093-2.14-7.29-11.462-1.525-15.845.132-3.854-3.643-1.566-4.418-10.532-5.07z" fill="#FF4C4C"/></svg>