<svg width="92" height="91" viewBox="0 0 92 91" fill="none" xmlns="http://www.w3.org/2000/svg"><path fill-rule="evenodd" clip-rule="evenodd" d="M75.926 85.799l-.08-3.242H52.469c1.532-.995 2.765-1.5 4.347-2.479 7.548-4.67.951-3.412 18.824-3.412l.263-3.154c1.462.584 3.616 2.061 5.018 2.906.976.588 1.589.97 2.62 1.573l1.82 1.167c.66.609.114-.047.658.769l-10.092 5.872zm-2.943-65.094h2.655l.14-2.946H73.12l-.138 2.946zm-5.873 0h2.657l.14-2.946H67.25l-.14 2.946zm11.744 0h2.655l.14-2.946h-2.657l-.138 2.946zM.992 85.5h2.932l-.05-2.942H.992V85.5zm5.872 0h2.932v-2.942H6.864V85.5zm-2.936-8.835H6.86l.028-2.943h-2.96v2.943zm63.183-61.85H81.51l.138-2.946H67.251l-.14 2.946zm0-5.89H81.51l.138-2.947H67.251l-.14 2.947zM36.182 44.286c-1.574 1.298-3.772 2.345-2.615 5.932.832 2.586 2.95 2.825 6.214 2.684.977 1.318 1.571 2.078 3.128 2.595l1.516-1.622c-.465-1.51-1.222-2.107-2.534-3.087.209-4.94.169-4.067-2.702-6.502 0-2.4.395-4.561-.664-5.946h-1.678c-.614.8-.683 1.307-.715 2.766-.02.986.05 2.157.05 3.18zM25.251 33.94c2.67-1.318 6.751-4.841 10.968-4.032v5.522h2.934v-5.522c4.456-.801 8.085 2.702 10.825 3.919l-3.846 4.241 2.001 2.238 4.248-4.098c1.357 2.855 4.846 6.633 4.02 11.005h-5.506v2.943h5.517c.802 4.257-2.694 8.284-3.891 10.863l-4.257-3.858-2.226 2.006 4.073 4.248c-2.847 1.334-6.542 4.839-10.96 4.047v-5.523h-2.933v5.523c-4.33.83-8.274-2.7-10.828-3.892l3.846-4.27-2-2.235-4.249 4.097c-1.311-2.671-4.83-6.759-4.017-11.006h5.479l.025-2.943h-5.451c-.863-4.285 2.656-8.254 3.827-10.862l4.254 3.858 2.23-2.007-4.085-4.262h.002zm33.94 19.373c2.788-13.215-6.306-23.943-16.768-26.205-13.342-2.887-23.866 6.337-26.217 16.818-3.024 13.48 6.3 23.972 16.737 26.302 13.375 2.988 24.043-6.46 26.248-16.915zm-46.142-.842c-2.21-14.905 8.466-26.704 20.92-28.526 14.826-2.168 26.587 8.582 28.386 21.024 2.15 14.882-8.514 26.611-20.958 28.48-14.835 2.227-26.51-8.573-28.348-20.978zM59.703 23.65c0-8.991-1.223-16.049 5.711-19.52 3.09-1.547 16.312-2.47 20.638 1.92 5.356 5.438 3.056 13.595-2.712 16.5-3.966 2-18.207 1.1-23.637 1.1zM24.449 73.693c-9.834.192-9.36 1.168-13.748-4.663C8.274 65.806 6.204 61.763 5 57.082c-7.355-28.578 23.412-52.97 49.974-37.517 2.521 1.466 1.794 1.973 1.794 7.03 2.944 0 5.851-.616 7.338 1.04 3.47 3.866 6.384 11.334 7.069 16.868 1.25 10.111-2.345 19.342-7.085 25.2-12.538 15.492-27.1 12.853-51.356 12.853V85.5l60.107-.003.122 5.504 18.769-11.205c-1.218-1.255-16.382-10.378-18.82-11.492v5.419l-8.019-.03c.585-1.418 3.497-4.008 6.242-9.953 3.751-8.127 4.212-18.01 1.43-26.485-1.859-5.66-3.968-7.701-5.236-10.66 9.336 0 15.71 1.419 21.17-4.35C95.791 14.54 91.311.373 78.37.084c-3.332-.073-9.31-.31-12.222.573-8.555 2.595-9.382 9.59-9.382 16.288-1.049-.175-3.957-1.887-5.52-2.48C25.272 4.598-.034 24.72 1.036 49.95c.648 15.282 8.209 20.602 9.39 23.82-.86-.697-.627 1.793-.627 2.894 9.406 0 20.36.516 29.577-.08 25.866-1.666 35.602-34.17 14.881-50.409-11.665-9.142-30.839-6.998-40.171 7.67-4.238 6.661-5.587 15.132-2.83 23.682 3.615 11.202 10.892 13.636 13.192 16.166z" fill="#FF4C4C"/></svg>