<svg width="92" height="91" viewBox="0 0 92 91" fill="none" xmlns="http://www.w3.org/2000/svg"><path fill-rule="evenodd" clip-rule="evenodd" d="M74.182 71.511c-1.423 9.553-9.92 17.957-21.348 16.387-9.647-1.326-17.963-10.145-16.41-21.594 1.298-9.56 10.258-17.867 21.73-16.165 9.336 1.386 17.669 10.346 16.028 21.372zm-20.375-1.016h5.889v-2.234l-.147-.712-2.8-.069.002-5.82-2.944-.002v8.837zM29.483 53.888c2.227 7.198-1.976 10.615-8.261 8.386l-1.462 2.38c8.416 4.363 16.745-3.487 12.11-12.163-.974.375-1.595.837-2.387 1.397zM17.245 61.9c1.011-.512 1.552-.89 2.237-1.535-3.093-4.836 1.49-10.73 8.226-8.076.542-.76.963-1.313 1.42-2.313-4.47-4.095-14.99.075-13.258 9.106.118.61.256 1.066.48 1.528.502 1.032-.163-.203.309.54.247.39.395.532.586.75zM45.3 56.477c.473 1.277.595 1.043 1.6 2.071 2.65-1.057 3-2.072 6.907-2.629l.105 2.8 2.586-.005.306-2.69c6.037.09 10.914 5.607 11.576 11.474l-2.69.062.087 2.94 2.553-.003c-.39 3.084-1.293 4.826-2.63 6.703.471.65 1.179 1.343 1.968 1.905 7.806-8.4 2.817-25.134-11.047-26.188-4.262-.324-9.008.946-11.32 3.56zm-6.117 12.19c0 14.046 15.87 21.424 26.253 12.721-.588-.718-1.131-1.32-1.88-1.98-1.643 1.01-4.024 2.502-6.804 2.566v-2.743h-2.945v2.844c-6.89-.7-12.178-7.498-11.273-11.58h2.538l-.147-2.946h-2.696c.473-4.015 1.595-4.34 2.615-7.009-.96-1.019-.994-1.038-2.006-1.562-2.031 2.143-3.656 5.788-3.656 9.688v.001zm10.993-35.249c-1.302.501-.838.345-1.93-.203l-.122-1.852c.766-.327 1.653-.818 2.392-.022.766.825.152 1.504.089 1.623l-.43.454zM22.703 19.326c.483 2.044-.337 2.867-2.489 2.382l.153-2.434 2.336.052zm-16.12.253c.54 2.803-1.687 3.041-2.456 1.648-.845-1.533.671-2.449 2.456-1.648zm56.974-.89c-2.26 1.073-2.765-1.25-2.046-2.038 1.302-1.428 3.144.145 2.046 2.038zM39.489 7.618c1.307-.79 3.717.514 2.144 2.144-1.48 1.536-2.694-.08-2.144-2.144zm43.667-4.8l2.817.152c-.63.899-8.635 7.277-9.824 8.063l-4.39-4.154c-1.377.698-5.987 5.443-6.832 6.656-5.385-.616-7.264 1.332-6.194 6.525-2.114 1.577-2.431 2.671-4.103 4.334-1.068 1.063-1.123 1.004-1.96 2.097-1.174 1.535-.8 1.69-2.926 1.444-.935-.8-6.23-14.817-5.932-15.981.004-.013 3.364-5.525-1.613-7.26-3.806-1.326-6.01 1.61-5.912 5.106-2.441 1.11-6.718 4.032-9.273 5.66-3.944 2.513-1.665.929-5.307.738-3.128-.164-2.921 1.877-4.867 2.898H9.934l-1.998-2.072c-5.912-4.44-10.51 7.361-2.863 7.86 3.924.256 3.602-2.842 5.267-2.842h6.093c2.073 0 2.063 3.535 6.028 2.768 3.16-.612 2.73-2.721 3.722-5.357l9.49-5.905c1.65-1.066 1.506-1.357 3.306-.789 2.741.865 1.72.501 4.03 6.571 1.01 2.649 1.913 5.023 2.92 7.678 1.164 3.069.341 1.534-.515 3.642-2.159 5.309 5.46 8.12 7.744 4.048 2.198-3.914-1.945-1.793 2.532-7.22 1.788-2.166 3.42-3.354 4.872-5.713 5.094.537 6.828-1.333 6.119-6.477l4.492-4.293c1.91.888 2.914 2.763 4.57 4.002 2.461-1.179 10.981-9.294 13.304-10.172l.055 4.014h2.788L91.992 0l-8.837.023v2.796h.001zm2.994 14.815l2.894.015v49.881l-2.944-.233.05-49.663zm-8.91 48.264c-.381-1.29-.667-2.603-1.17-4.049-.348-.995-1.235-2.575-1.46-3.435-.552-2.102-.274-27.32-.059-29.073l2.712.09-.023 36.467zM22.452 45.711c7.046-1.313 12.457 3.774 13.563 9.464.516 2.654-1.087 6.293-2.24 8.884-2.999 6.74-18.607 7.407-20.814-4.512-1.327-7.164 3.55-12.729 9.491-13.836zM62.77 36.67h2.81l-.115 12.768-2.827-1.06.132-11.708zm-11.91 7.416h2.946l.015 1.421-.093 1.537-2.719.325-.147-1.456-.001-1.827zm-36.05-1.792c1.502-.462 2.667-1.13 4.398-1.732 2.426-.843 1.56-1.183 2.202-3.906l6.192.114.764 3.303c2.113.534 3.818 1.466 5.536 2.234 1.44-.642 1.524-1.122 2.918-1.71l4.318 4.602c-.653.74-1.343 1.68-1.78 2.438 3.034 5.958 1.216 4.228-.38 6.606-2.294-5.857-5.045-10.732-12.815-11.566-14.988-1.611-21.981 17.072-10.718 26.157 8.021 6.47 16.046.886 17.827.419l.261 3.256-5.292 1.897c-.847 4.256.553 3.405-6.922 3.392l-.63-3.176-5.88-2.4c-1.142.66-1.69 1.169-2.84 1.647l-4.09-4.39c2.75-4.818 1.372-1.022-.544-8.424l-3.37-.69-.022-6.225c2.767-.549 3.057.21 3.86-2.241.574-1.752 1.338-2.996 1.713-4.361-.718-1.114-1.256-1.529-1.641-2.924l3.94-4.034c1.643.585 1.672.849 2.994 1.714zm-10.768 2.4c.99 1.5 2.3 2.514 1.707 4.288-.766 2.291-.906 2.123-4.756 2.594l.06 11.326 3.804.685c2.207 4.421.728 2.749-.8 6.299 1.733 2.95 5.386 5.03 7.35 7.847 2.732-.713 2.336-2.637 4.962-1.73 2.587.894 1.739 1.365 2.551 4.76l11.15-.083c.44-1.83-.004-4.946 4.11-4.954 2.833 4.269 1.928 6.414 8.56 11.322 3.891 2.879 9.924 4.594 15.686 3.726 8.002-1.206 14.008-6.197 16.917-12.755 4.015-9.056-3.448-7.523 16.643-7.523l-.095-55.777-8.731.082-.004 52.748h-2.944V26.387l-8.734.224-.028 27.072c-3.819-1.873-2.918-3.46-2.918-8.584V33.701l-8.836.223-.004 13.444-2.9-.412-.166-5.833-8.694.165-.119 7-3.96 1.892c-1.861-3.533-.481-2.592 1.056-5.487-.915-1.518-6.33-6.833-7.858-7.948-3.247 2.272-2.171 2.488-6.282.916l-.624-3.919-11.352-.02c-.468 3.87-.267 4.007-2.51 4.78-1.729.596-1.417.27-4.397-1.76L4.04 44.693h.001z" fill="#FF4C4C"/></svg>