<svg width="96" height="86" viewBox="0 0 96 86" fill="none" xmlns="http://www.w3.org/2000/svg"><path fill-rule="evenodd" clip-rule="evenodd" d="M4.755 63.21c2.436-1.513 5.193-4.18 7.827-5.26l9.757 14.076c1.2 1.666 2.567 3.166 3.35 5.113-2.466 1.113-4.876 3.448-7.375 5.02l-.453-.435c-.043-.048-.162-.166-.214-.225L4.756 63.211zm57.553-48.294l5.041 8.3 11.9 2.905-7.941 9.426.947 12.355-11.323-4.73-6.402 2.674c-.61.881-1.238 1.726-1.717 2.459-.376.124-.684.421-1.626.934-2.764 1.505-6.265 1.088-9.655 1.088L38.9 55.002c7.062.048 14.04.045 21.018.048 5.043.004 4.886.317 9.137-1.492 2.032-.865 5.5-2.023 7.297-3.16l3.45-1.434.069.067c.456-.175.969-.396 1.522-.641a27.385 27.385 0 006.533-17.813c0-7.54-3.022-14.37-7.906-19.31-4.883-4.94-11.634-7.996-19.09-7.996-7.453 0-14.205 3.056-19.088 7.996a27.385 27.385 0 00-7.906 19.31c0 3.172.535 6.217 1.518 9.049 1.742-.605 3.829-.511 6.034-.42h.006c.778.03 1.572.062 2.37.062l-.01-.041 5.05.046c.398.07.851.1 1.356.111l.295-3.838-7.941-9.426 11.9-2.904L60.93 12.65l1.376 2.266zm-5.843 26.596l4.467-1.865 7.699 3.215-.645-8.4 5.407-6.419-8.106-1.977-.345-.57-4.01-6.602-4.357 7.172-8.105 1.977 5.406 6.419-.374 4.886a79.85 79.85 0 012.174-.013c.669.934.834 1.588.79 2.177zm-39.08 31.44c-3.522 2.216-.702 7.424 3.089 5.355 3.345-1.825.662-7.713-3.089-5.355zM60.932 0c8.346 0 15.903 3.423 21.374 8.956a30.66 30.66 0 018.854 21.621 30.698 30.698 0 01-4.148 15.466c3.741-1.246 7.452-1.453 8.704 2.854.887 3.053-.573 4.298-1.426 6.153 6.355 9.39-9.546 10.333-18.605 12.512-6.309 1.518-10.88 9.603-24.258 9.603H39.965c-3.029 0-8.254-1.738-11.516-2.28 2.07 4.042.199 3.424-7.062 9.037-1.518 1.174-2.241 2.136-4.532 2.075L4.703 68.811c-5.503-7.85-5.88-4.966 5.751-13.564 1.99-1.47 2.258-1.104 4.117-.21.862-1.2 13.666-10.285 18.084-13.627a30.819 30.819 0 01-1.952-10.833 30.663 30.663 0 018.854-21.62C45.027 3.422 52.586 0 60.93 0zm21.222 62.673c1.36-1.236 3.226-2.236 4.686-3.153 1.129-.711 4.005-3.285 5-2.384 4.127 3.734-7.879 5.544-9.686 5.537zM31.057 46.475c4.866-3.626 4.63-4.147 8.903-4.103 4.33.044 8.673.011 13.004.011-1.704 6.163-7.13 4.28-13.158 4.883-1.363 2.157-5.436 8.022-5.083 10.635 5.907.81 22.857.37 29.864.37 2.26 0 18.193-6.952 22.203-8.68 2.484-1.068 5.844-2.55 5.988 1.594-.95 1.785-2.993 2.676-4.598 3.685-1.697 1.066-3.252 2.165-4.887 3.203l-14.766 9.558c-5.57 3.728-9.644 6.421-17.95 6.421-15.58 0-8.671.288-22.608-2.572-2.4-.493-2.264-.117-3.422-1.691l-6.347-9.04c-.996-1.443-1.52-1.73-1.948-3.123l14.805-11.151z" fill="#FF4C4C"/></svg>