<svg width="1409" height="1362" viewBox="0 0 1409 1362" fill="none" xmlns="http://www.w3.org/2000/svg">
<path d="M452.445 600.667C550.311 522.293 367.333 393.705 490.495 319.675C613.658 245.644 654.9 422.413 730.69 407.809C846.874 385.423 743.321 246.116 785.118 174.151C867.395 32.4868 942.392 122.719 1001.23 161.188C1106.56 230.055 1239.1 479.824 1110.37 613.675C1059.08 667.011 940.134 633.003 888.874 709.175C791.998 853.132 1001.23 890.676 930.873 1028.18C902.283 1084.05 730.987 1054.28 711.874 1142.67C692.761 1231.07 574.955 1278.1 490.495 1209.74C406.036 1141.37 440.422 1037.63 390.374 991.175C321.714 927.44 223.032 989.219 164.374 916.175C111.085 849.815 107.077 737.126 164.373 674.175C254.76 574.869 354.579 679.04 452.445 600.667Z" fill="#FF4C4C"/>
</svg>
