<svg width="14" height="27" viewBox="0 0 14 27" fill="none" xmlns="http://www.w3.org/2000/svg"><path fill-rule="evenodd" clip-rule="evenodd" d="M3.422 21.561c.622.96 1.556 1.28 2.49 1.28 1.555 0 2.8-.96 3.11-2.24 0-.64 0-.96.311-1.6l.623-3.839c0-.64.933-6.718.933-7.038 0-.32 0-.64-.311-.64l-.311-.32h-.311c-.623.32-.623.64-.623.96L7.467 18.362v.64c0 .32 0 .64-.311.96-.312.64-.623.96-1.556.96-.622 0-.933-.96-.933-1.6v-1.28c0-.32 1.244-6.719 1.244-6.719 0-.96.933-6.718.933-7.038v-.32c.312-.32.312-.32.312-.64.622-1.28 1.866-1.6 3.11-1.28 1.556.32 2.178 1.92 1.867 3.2v.32c-.622 4.478-1.555 8.957-2.177 13.437 0 .64 0 .96-.312 1.6v.64c0 .64-.31 1.279-.622 1.919-.31.64-1.244 1.6-2.178 1.92H4.978c-.311 0-.934-.32-1.245-.32-1.244-.64-1.866-1.92-1.866-3.52v-1.92c.31-.32.622-3.199.622-3.519v-.64l1.244-7.358v-.96c-.31-.32-.933-.32-1.244 0-.311 0-.311.64-.311.96L.31 19.642C0 20.922 0 21.242 0 22.2c0 .32.311.64.311.96.311 1.28 1.556 2.56 2.489 2.88.311.32.622.32.933.64h1.245c.31.32.622.319.933.319l.933-.32c.623 0 1.556-.32 1.867-.64.933-.64 1.245-.96 1.556-1.6.31 0 .31-.32.31-.32.623-.96.623-1.6.934-2.559l1.867-13.437c.31-.64.622-3.2.622-3.84 0-.64 0-1.599-.622-2.239-.311-.64-.622-.96-1.245-1.28h-.31c-.934-.64-1.867-.96-3.112-.64-.622 0-1.244.32-1.867.64-.31.32-.933.64-.933 1.28-.311.32-.622.96-.622 1.28-.622 4.159-1.245 8.638-1.867 12.797-.31.64-.622 2.56-.622 3.2 0 .64 0 1.6.622 2.24z" fill="#C5C6C6"/></svg>