<svg width="990" height="997" viewBox="0 0 990 997" fill="none" xmlns="http://www.w3.org/2000/svg">
<path d="M914.766 462.551C914.766 462.551 1383 566.376 1081 872.376C778.999 1178.38 663.595 678.533 485.138 872.376C261.626 1115.16 -53.9998 971 9.01678 705.217C49.0478 536.379 240.5 767 295 607C335.875 487 216.087 509.824 139.574 439.384C63.0609 368.944 47.5 235.5 170.858 160.315C294.215 85.13 362.308 186.438 430.384 181.083C523.778 173.738 459.526 33.0109 593.277 4.14757C793.499 -39.0604 903.97 95.548 793.5 279.5C699.144 436.619 914.766 462.551 914.766 462.551Z" fill="#FF4C4C"/>
</svg>
