<svg width="1300" height="514" viewBox="0 0 1300 514" fill="none" xmlns="http://www.w3.org/2000/svg"><path d="M127.828 134.554c74.47-44.012 41.839-22.988 95.188-90.754h.001c12.172-15.462 56.92-42.093 78.736-43.392 57.368-3.414 61.889 14.365 43.123 62.59-60.684 155.952 447.86 143.653 248.722 364.161-49.117 54.388-191.392 99.816-234.65 82.875-87.803-34.384 122.799-217.63-113.264-244.756-108.113-12.423-182.973-92.239-117.856-130.724z" fill="#fff" fill-opacity=".051"/><path d="M14.27 328.98c3.938 0 7.51 1.588 10.09 4.15a14.083 14.083 0 014.18 10.017c0 3.906-1.602 7.448-4.187 10.012a14.233 14.233 0 01-10.083 4.157c-3.93 0-7.495-1.588-10.078-4.15C1.6 350.59 0 347.049 0 343.148c0-3.909 1.6-7.455 4.18-10.017a14.317 14.317 0 0110.09-4.15v-.001zm5.866 8.345a8.307 8.307 0 00-5.865-2.412c-2.3 0-4.376.92-5.865 2.4a8.238 8.238 0 00-2.43 5.834c0 2.283.928 4.345 2.418 5.823a8.3 8.3 0 005.877 2.413 8.303 8.303 0 005.865-2.413 8.137 8.137 0 002.43-5.823 8.188 8.188 0 00-2.43-5.822zm780.165 24.469l-5.057 5.698 5.737 5.019-4.748 5.358-5.74-5.022-5.054 5.697-5.396-4.713 5.057-5.7-5.737-5.018 4.748-5.358 5.74 5.022 5.054-5.696 5.396 4.713zm357.879-189.765c39.01 0 74.38 15.732 99.94 41.113 25.57 25.38 41.41 60.499 41.41 99.228 0 38.683-15.87 73.78-41.48 99.16-25.49 25.449-60.86 41.181-99.87 41.181-38.91 0-74.24-15.732-99.83-41.112-25.68-25.518-41.52-60.592-41.52-99.229 0-38.729 15.85-73.848 41.41-99.228 25.63-25.357 60.98-41.113 99.94-41.113zm58.09 82.664a82.278 82.278 0 00-58.09-23.899c-22.77 0-43.34 9.116-58.09 23.784-14.85 14.853-24.07 35.281-24.07 57.792 0 22.604 9.18 43.033 23.95 57.678 14.87 14.784 35.44 23.898 58.21 23.898 22.67 0 43.25-9.161 58.09-23.898 14.89-14.645 24.07-35.074 24.07-57.678 0-22.511-9.22-42.939-24.07-57.677z" fill="#202122"/></svg>