<svg width="2345" height="1625" viewBox="0 0 2345 1625" fill="none" xmlns="http://www.w3.org/2000/svg"><path fill-rule="evenodd" clip-rule="evenodd" d="M225.43 955.226c88.187 114.984 388.666 103.224 46.851 354.344-60.166 44.2-109.968 114.91-109.968 241.85 0 25.39-164.125-58.03-162.298-307.92.941-128.68 9.548-176.75 21.25-300.702 49.09-519.926 40.213-201.338 204.164 12.428h.001z" fill="#fff" fill-opacity=".051"/><path d="M457.174 196.322c107.878-64.217 60.608-33.541 137.891-132.415h.001C612.699 41.346 677.522 2.49 709.126.594c83.103-4.98 89.653 20.959 62.469 91.324-87.909 227.542 648.775 209.597 360.305 531.33-71.15 79.354-277.257 145.637-339.921 120.919-127.193-50.169 177.889-317.534-164.077-357.112-156.613-18.126-265.058-134.582-170.728-190.733zm917.966 680.459c-58.61 417.989-464.752 154.249-438.236 393.709h.002c.09.82-29.846 184.59 144.354 205.59 174.21 21 263.5-167.5 263.5-167.5s111-142.5 240.5 167.5 671.5 66 736-120.5-20.17-389.55-82.5-446.004C1995.73 689.445 1834.7 1086.9 1514.4 809.181c-59.54-51.628-129.64-1.027-139.26 67.6z" fill="#fff" fill-opacity=".051"/><path d="M292.673 480a20.62 20.62 0 0114.616 6.055 20.62 20.62 0 016.056 14.616c0 5.698-2.322 10.867-6.067 14.607a20.542 20.542 0 01-14.606 6.066c-5.692 0-10.858-2.317-14.599-6.055-3.756-3.76-6.073-8.925-6.073-14.617a20.62 20.62 0 016.055-14.616c3.75-3.735 8.919-6.055 14.617-6.055l.001-.001zm8.496 12.176a11.987 11.987 0 00-8.496-3.52 11.97 11.97 0 00-8.496 3.502 12.066 12.066 0 00-3.52 8.513 11.987 11.987 0 0012.016 12.016c3.316 0 6.324-1.349 8.496-3.52a11.917 11.917 0 003.52-8.496c0-3.316-1.349-6.324-3.52-8.495zm810.241 278.419l-22.32 41.913-29.09-46.63 54.93-1.878-3.52 6.593v.002zM1094.4 784.2l5.89-11.066-25.06.855 13.28 21.275 5.89-11.064zm336.93-256.323l-7.33 8.314 8.32 7.323-6.88 7.817-8.32-7.326-7.32 8.312-7.82-6.877 7.33-8.317-8.31-7.322 6.88-7.817 8.31 7.327 7.32-8.311 7.82 6.877zM614.673 1203c5.705 0 10.878 2.32 14.616 6.06a20.595 20.595 0 016.056 14.61c0 5.7-2.321 10.87-6.067 14.61a20.53 20.53 0 01-14.606 6.06 20.595 20.595 0 01-14.599-6.05c-3.756-3.76-6.073-8.93-6.073-14.62 0-5.7 2.317-10.87 6.056-14.61 3.749-3.74 8.918-6.06 14.616-6.06h.001zm8.496 12.18a11.996 11.996 0 00-8.496-3.52c-3.329 0-6.338 1.34-8.496 3.5-2.17 2.19-3.52 5.2-3.52 8.51 0 3.33 1.344 6.34 3.503 8.5a12.016 12.016 0 008.513 3.52c3.316 0 6.324-1.35 8.496-3.52a11.93 11.93 0 003.52-8.5c0-3.31-1.349-6.32-3.52-8.49zM1949.76 251c56.51 0 107.75 22.954 144.78 59.986 37.03 37.03 59.99 88.271 59.99 144.779 0 56.44-22.99 107.649-60.09 144.679-36.93 37.132-88.17 60.087-144.68 60.087-56.37 0-107.54-22.955-144.61-59.986-37.2-37.232-60.15-88.407-60.15-144.78 0-56.508 22.95-107.749 59.98-144.779 37.14-36.997 88.34-59.986 144.78-59.986zm84.16 120.611c-21.5-21.503-51.31-34.87-84.16-34.87-32.98 0-62.78 13.3-84.15 34.702-21.5 21.671-34.87 51.477-34.87 84.322 0 32.98 13.3 62.787 34.7 84.155 21.54 21.571 51.34 34.869 84.32 34.869 32.85 0 62.65-13.367 84.16-34.869 21.57-21.368 34.87-51.175 34.87-84.155 0-32.845-13.37-62.651-34.87-84.154zm-696.29 242.39c46.25 0 88.21 18.791 118.52 49.107 30.31 30.312 49.1 72.262 49.1 118.521 0 46.202-18.81 88.127-49.18 118.439-30.23 30.398-72.19 49.188-118.44 49.188-46.15 0-88.04-18.791-118.39-49.107-30.45-30.48-49.24-72.373-49.24-118.522 0-46.258 18.79-88.208 49.11-118.52 30.4-30.29 72.31-49.107 118.52-49.107v.001z" fill="#202122"/></svg>