<svg width="3070" height="2877" viewBox="0 0 3070 2877" fill="none" xmlns="http://www.w3.org/2000/svg"><path fill-rule="evenodd" clip-rule="evenodd" d="M678.048 955.226c87.606 114.984 386.102 103.224 46.542 354.344-59.769 44.2-109.242 114.91-109.242 241.85 0 25.39-163.042-58.03-161.227-307.92.934-128.68 9.484-176.75 21.109-300.702 48.766-519.926 39.948-201.338 202.817 12.428h.001z" fill="#fff" fill-opacity=".051"/><path d="M908.262 196.322c107.168-64.217 60.209-33.541 136.978-132.415 17.52-22.56 81.92-61.417 113.31-63.312 82.56-4.98 89.06 20.959 62.06 91.324-87.33 227.541 644.5 209.596 357.92 531.329-70.68 79.354-275.42 145.637-337.67 120.919-126.36-50.169 176.71-317.534-163-357.112-155.576-18.126-263.305-134.582-169.598-190.733z" fill="#fff" fill-opacity=".051"/><path d="M744.849 480c5.667 0 10.806 2.317 14.519 6.055a20.687 20.687 0 016.017 14.616 20.663 20.663 0 01-6.027 14.607 20.342 20.342 0 01-14.51 6.066c-5.654 0-10.786-2.317-14.503-6.055-3.731-3.76-6.033-8.925-6.033-14.617a20.69 20.69 0 016.015-14.616c3.726-3.735 8.861-6.055 14.521-6.055l.001-.001zm8.44 12.176a11.868 11.868 0 00-8.44-3.52 11.853 11.853 0 00-8.44 3.502 12.105 12.105 0 00-3.497 8.513c0 3.33 1.335 6.338 3.481 8.496a11.864 11.864 0 008.456 3.52c3.294 0 6.283-1.349 8.44-3.52a11.96 11.96 0 003.497-8.496 12.03 12.03 0 00-3.497-8.495zm537.671 517.414l-22.18 41.92-28.89-46.63 54.56-1.88-3.49 6.59zm-16.9 13.61l5.86-11.07-24.9.86 13.19 21.27 5.85-11.06zm601.93-495.323l-7.27 8.314 8.25 7.323-6.83 7.817-8.26-7.326-7.27 8.312-7.77-6.877 7.28-8.317-8.26-7.322 6.83-7.817 8.27 7.327 7.27-8.311 7.76 6.877zM879.951 743c5.667 0 10.806 2.317 14.519 6.056a20.684 20.684 0 016.016 14.616 20.653 20.653 0 01-6.027 14.606 20.333 20.333 0 01-14.509 6.067c-5.654 0-10.786-2.317-14.503-6.056-3.731-3.758-6.033-8.925-6.033-14.616a20.684 20.684 0 016.016-14.616c3.724-3.735 8.859-6.056 14.52-6.056l.001-.001zm8.44 12.176a11.874 11.874 0 00-8.44-3.52 11.856 11.856 0 00-8.44 3.503 12.105 12.105 0 00-3.497 8.513c0 3.329 1.335 6.338 3.48 8.496a11.874 11.874 0 008.457 3.52c3.294 0 6.282-1.35 8.44-3.52a11.962 11.962 0 003.497-8.496c0-3.316-1.341-6.324-3.497-8.496zM2391.01 251c56.13 0 107.04 22.954 143.82 59.986 36.79 37.03 59.59 88.271 59.59 144.779 0 56.44-22.84 107.649-59.69 144.679-36.68 37.132-87.59 60.087-143.72 60.087-56 0-106.84-22.955-143.66-59.986-36.95-37.232-59.76-88.407-59.76-144.78 0-56.508 22.81-107.749 59.59-144.779 36.89-36.997 87.76-59.986 143.83-59.986zm83.6 120.611c-21.36-21.503-50.98-34.87-83.6-34.87-32.77 0-62.38 13.3-83.6 34.702-21.36 21.671-34.64 51.477-34.64 84.322 0 32.98 13.21 62.787 34.47 84.155 21.39 21.571 51 34.869 83.77 34.869 32.62 0 62.23-13.367 83.6-34.869 21.42-21.368 34.64-51.175 34.64-84.155 0-32.845-13.28-62.651-34.64-84.154z" fill="#202122"/><path fill-rule="evenodd" clip-rule="evenodd" d="M2440.37 1343.55c-87.61-114.99-386.11-103.22-46.55-354.34 59.77-44.203 109.25-114.917 109.25-241.851 0-25.398 163.04 58.028 161.22 307.911-.93 128.69-9.48 176.75-21.11 300.71-48.76 519.92-39.94 201.34-202.81-12.43z" fill="#fff" fill-opacity=".051"/><path d="M2373.57 1818.78c-5.67 0-10.81-2.32-14.52-6.06a20.709 20.709 0 01-6.02-14.62c0-5.69 2.31-10.86 6.03-14.6 3.7-3.75 8.84-6.07 14.51-6.07 5.65 0 10.79 2.32 14.5 6.06 3.73 3.76 6.04 8.92 6.04 14.61 0 5.71-2.31 10.88-6.02 14.62-3.72 3.73-8.86 6.05-14.52 6.05v.01zm-8.44-12.18c2.16 2.17 5.14 3.52 8.44 3.52 3.31 0 6.3-1.34 8.44-3.5 2.15-2.19 3.5-5.2 3.5-8.52 0-3.33-1.34-6.33-3.48-8.49a11.86 11.86 0 00-8.46-3.52c-3.3 0-6.28 1.35-8.44 3.52a11.96 11.96 0 00-3.5 8.49c0 3.32 1.34 6.33 3.5 8.5zM828.488 1548.91l22.177-41.91 28.898 46.63-54.565 1.88 3.49-6.6zm16.902-13.6l-5.856 11.06 24.896-.85-13.186-21.28-5.853 11.07h-.001zm397.03 235.59l7.28-8.32-8.25-7.32 6.83-7.82 8.26 7.33 7.27-8.31 7.77 6.88-7.28 8.31 8.25 7.32-6.83 7.82-8.26-7.33-7.27 8.32-7.77-6.88z" fill="#202122"/><path d="M1401.53 2273.34c-5.66 0-10.8-2.31-14.52-6.05a20.7 20.7 0 01-6.01-14.62c0-5.69 2.3-10.86 6.03-14.6 3.7-3.75 8.84-6.07 14.5-6.07s10.79 2.32 14.51 6.06c3.73 3.75 6.03 8.92 6.03 14.61 0 5.71-2.3 10.88-6.02 14.62-3.72 3.73-8.85 6.05-14.52 6.05zm-8.44-12.17c2.16 2.17 5.15 3.52 8.44 3.52 3.31 0 6.3-1.34 8.44-3.5 2.16-2.19 3.5-5.2 3.5-8.52 0-3.33-1.33-6.34-3.48-8.49a11.86 11.86 0 00-8.46-3.52c-3.29 0-6.28 1.35-8.44 3.52-2.16 2.15-3.49 5.16-3.49 8.49 0 3.32 1.34 6.33 3.49 8.5z" fill="#fff" fill-opacity=".25"/><path d="M465.501 2575c-128.461 0-244.953-52.52-329.135-137.25C52.183 2353.03 0 2235.79 0 2106.5c0-129.13 52.257-246.3 136.595-331.02C220.548 1690.52 337.04 1638 465.501 1638c128.156 0 244.494 52.52 328.751 137.25C878.82 1860.43 931 1977.52 931 2106.5c0 129.29-52.183 246.53-136.366 331.25C710.222 2522.4 593.807 2575 465.499 2575h.002zm-191.313-275.96c48.882 49.2 116.647 79.78 191.313 79.78 74.975 0 142.735-30.42 191.314-79.39 48.882-49.59 79.27-117.78 79.27-192.93 0-75.46-30.237-143.65-78.887-192.54-48.962-49.36-116.722-79.78-191.697-79.78-74.666 0-142.428 30.58-191.313 79.78-49.036 48.89-79.271 117.08-79.271 192.54 0 75.15 30.391 143.34 79.271 192.54zm2737.662 251.29c-178.35 106.85-100.2 55.81-227.97 220.33-29.15 37.54-136.32 102.2-188.57 105.35-137.38 8.29-148.21-34.87-103.27-151.96 145.33-378.62-1072.57-348.76-595.66-884.11 117.63-132.04 458.36-242.33 561.96-201.2 210.28 83.47-294.09 528.36 271.26 594.22 258.91 30.16 438.19 223.93 282.25 317.37z" fill="#fff" fill-opacity=".051"/></svg>