<svg width="2182" height="2004" viewBox="0 0 2182 2004" fill="none" xmlns="http://www.w3.org/2000/svg"><path fill-rule="evenodd" clip-rule="evenodd" d="M225.43 1018.55c88.187-114.991 388.666-103.228 46.851-354.344-60.166-44.203-109.968-114.917-109.968-241.851 0-25.398-164.125 58.028-162.298 307.914.941 128.684 9.548 176.748 21.25 300.701 49.09 519.93 40.213 201.34 204.164-12.42h.001z" fill="#fff" fill-opacity=".051"/><path d="M436.174 1807.1c107.878 64.21 60.608 33.54 137.891 132.41h.001c17.633 22.56 82.456 61.42 114.06 63.31 83.103 4.98 89.653-20.96 62.469-91.32-87.909-227.54 648.775-209.6 360.305-531.33-71.15-79.36-277.257-145.64-339.921-120.92-127.193 50.17 177.889 317.53-164.077 357.11-156.613 18.13-265.058 134.58-170.728 190.74zM1155.14 747.436c-58.61-417.991-464.752-154.253-438.236-393.704h.002c.09-.827-29.846-184.59 144.357-205.59 174.207-21 263.497 167.5 263.497 167.5s111 142.5 240.5-167.5 671.5-66 736 120.5-20.17 389.546-82.5 446C1775.73 934.773 1614.7 537.32 1294.4 815.037c-59.54 51.628-129.64 1.026-139.26-67.601z" fill="#fff" fill-opacity=".051"/><path d="M295.673 1415.34c5.704 0 10.878-2.32 14.616-6.05a20.64 20.64 0 006.056-14.62c0-5.7-2.322-10.87-6.067-14.61a20.533 20.533 0 00-14.606-6.06 20.593 20.593 0 00-14.599 6.05c-3.756 3.76-6.073 8.93-6.073 14.62 0 5.7 2.317 10.88 6.055 14.61 3.75 3.74 8.919 6.06 14.617 6.06h.001zm8.496-12.18a11.963 11.963 0 01-8.496 3.53c-3.33 0-6.339-1.35-8.496-3.51-2.17-2.19-3.52-5.19-3.52-8.51 0-3.33 1.344-6.34 3.503-8.5a12.016 12.016 0 018.513-3.52c3.316 0 6.324 1.35 8.496 3.52a11.93 11.93 0 013.52 8.5c0 3.32-1.349 6.32-3.52 8.49zm630.245-396.25l-22.324-41.913L883 1011.63l54.927 1.87-3.513-6.59zM917.4 993.305l5.895 11.065-25.062-.85 13.274-21.279 5.891 11.064h.002zm501.93 56.035l-7.33-8.32 8.32-7.32-6.88-7.82-8.32 7.33-7.32-8.31-7.82 6.87 7.33 8.32-8.31 7.32 6.88 7.82 8.31-7.33 7.32 8.31 7.82-6.87zM617.673 596.345a20.614 20.614 0 0014.616-6.056 20.614 20.614 0 006.056-14.616c0-5.697-2.321-10.867-6.067-14.606A20.537 20.537 0 00617.672 555c-5.691 0-10.858 2.317-14.599 6.056-3.756 3.758-6.073 8.925-6.073 14.616a20.61 20.61 0 006.056 14.615c3.749 3.736 8.918 6.057 14.616 6.057l.001.001zm8.496-12.176a11.996 11.996 0 01-8.496 3.52 11.98 11.98 0 01-8.496-3.503 12.066 12.066 0 01-3.52-8.513 11.987 11.987 0 0112.016-12.016c3.316 0 6.324 1.349 8.496 3.52a11.917 11.917 0 013.52 8.496c0 3.316-1.349 6.324-3.52 8.496zM1976.76 1963.52c56.51 0 107.75-22.95 144.78-59.99 37.03-37.03 59.99-88.27 59.99-144.78 0-56.44-22.99-107.64-60.09-144.67-36.93-37.14-88.17-60.09-144.68-60.09-56.37 0-107.54 22.95-144.61 59.98-37.2 37.24-60.15 88.41-60.15 144.78 0 56.51 22.95 107.75 59.98 144.78 37.14 37 88.34 59.99 144.78 59.99zm84.16-120.61c-21.5 21.5-51.31 34.87-84.16 34.87-32.98 0-62.78-13.3-84.15-34.7-21.5-21.67-34.87-51.48-34.87-84.33 0-32.98 13.3-62.78 34.7-84.15 21.54-21.57 51.34-34.87 84.32-34.87 32.85 0 62.65 13.37 84.16 34.87 21.57 21.37 34.87 51.17 34.87 84.15 0 32.85-13.37 62.66-34.87 84.16zm-280.29-489.66c46.25 0 88.21-18.79 118.52-49.1 30.31-30.31 49.1-72.26 49.1-118.52 0-46.21-18.81-88.13-49.18-118.44-30.23-30.4-72.19-49.19-118.44-49.19-46.15 0-88.04 18.79-118.39 49.11-30.45 30.48-49.24 72.37-49.24 118.52 0 46.26 18.79 88.21 49.11 118.52 30.4 30.29 72.31 49.11 118.52 49.11v-.01z" fill="#202122"/></svg>