<svg width="2599" height="1938" viewBox="0 0 2599 1938" fill="none" xmlns="http://www.w3.org/2000/svg"><path fill-rule="evenodd" clip-rule="evenodd" d="M225.43 900.226c88.187 114.984 388.666 103.224 46.851 354.344-60.166 44.2-109.968 114.91-109.968 241.85 0 25.39-164.125-58.03-162.298-307.92.941-128.68 9.548-176.75 21.25-300.702 49.09-519.926 40.213-201.338 204.164 12.428h.001z" fill="#fff" fill-opacity=".25"/><path d="M290.174 196.322c107.878-64.217 60.608-33.541 137.891-132.415h.001C445.699 41.346 510.522 2.49 542.126.594c83.103-4.98 89.653 20.959 62.469 91.324-87.909 227.541 648.775 209.596 360.302 531.329-71.152 79.354-277.254 145.637-339.918 120.919-127.193-50.169 177.889-317.534-164.077-357.112-156.613-18.126-265.058-134.582-170.728-190.733zM1629.14 1189.78c-58.61 417.99-464.75 154.25-438.24 393.71h.01c.09.82-29.85 184.59 144.35 205.59 174.21 21 263.5-167.5 263.5-167.5s111-142.5 240.5 167.5 671.5 66 736-120.5-20.17-389.55-82.5-446c-243.03-220.14-404.06 177.32-724.36-100.4-59.54-51.63-129.64-1.03-139.26 67.6zM366.673 677a20.62 20.62 0 0114.616 6.055 20.62 20.62 0 016.056 14.616c0 5.698-2.322 10.867-6.067 14.607a20.542 20.542 0 01-14.606 6.066c-5.692 0-10.858-2.317-14.599-6.055-3.756-3.76-6.073-8.925-6.073-14.617a20.62 20.62 0 016.055-14.616c3.75-3.735 8.919-6.055 14.617-6.055l.001-.001zm8.496 12.176a11.987 11.987 0 00-8.496-3.52 11.97 11.97 0 00-8.496 3.502 12.066 12.066 0 00-3.52 8.513 11.987 11.987 0 0012.016 12.016c3.316 0 6.324-1.349 8.496-3.52a11.917 11.917 0 003.52-8.496c0-3.316-1.349-6.324-3.52-8.495zM1638.41 859.595l-22.32 41.913-29.09-46.63 54.93-1.878-3.52 6.593v.002zM1621.4 873.2l5.89-11.066-25.06.855 13.28 21.275 5.89-11.064zm-20.07-244.323l-7.33 8.314 8.32 7.323-6.88 7.817-8.32-7.326-7.32 8.312-7.82-6.877 7.33-8.317-8.31-7.322 6.88-7.817 8.31 7.327 7.32-8.311 7.82 6.877zM1818.76 417c56.51 0 107.75 22.954 144.78 59.986 37.03 37.03 59.99 88.271 59.99 144.779 0 56.44-22.99 107.649-60.09 144.679-36.93 37.132-88.17 60.087-144.68 60.087-56.37 0-107.54-22.955-144.61-59.986-37.2-37.232-60.15-88.407-60.15-144.78 0-56.508 22.95-107.749 59.98-144.779 37.14-36.997 88.34-59.986 144.78-59.986zm84.16 120.611c-21.5-21.503-51.31-34.87-84.16-34.87-32.98 0-62.78 13.3-84.15 34.702-21.5 21.671-34.87 51.477-34.87 84.322 0 32.98 13.3 62.787 34.7 84.155 21.54 21.571 51.34 34.869 84.32 34.869 32.85 0 62.65-13.367 84.16-34.869 21.57-21.368 34.87-51.175 34.87-84.155 0-32.845-13.37-62.651-34.87-84.154zM913.626 1441c46.258 0 88.214 18.79 118.524 49.11 30.31 30.31 49.1 72.26 49.1 118.52 0 46.2-18.81 88.13-49.18 118.44-30.23 30.4-72.186 49.19-118.443 49.19-46.148 0-88.041-18.8-118.385-49.11C764.79 1696.67 746 1654.78 746 1608.63c0-46.26 18.79-88.21 49.107-118.52 30.398-30.29 72.316-49.11 118.52-49.11h-.001z" fill="#fff" fill-opacity=".25"/></svg>