<svg width="1920" height="7914" viewBox="0 0 1920 7914" fill="none" xmlns="http://www.w3.org/2000/svg">
<path fill-rule="evenodd" clip-rule="evenodd" d="M-9.95311 1559.46C91.7622 1662.68 388.487 1613.89 80.3074 1905.3C26.0622 1956.6 -14.623 2032.92 1.05606 2158.89C4.19336 2184.09 -168.98 2121.57 -198.033 1873.38C-212.995 1745.56 -210.391 1696.8 -214.09 1572.35C-229.598 1050.34 -199.054 1367.59 -9.95431 1559.46L-9.95311 1559.46Z" fill="white" fill-opacity="0.05098"/>
<path d="M-412.007 1018.98C-414.403 893.458 -411.148 949.715 -458.802 833.622L-458.803 833.62C-469.677 807.132 -471.35 731.574 -457.352 703.175C-420.542 628.503 -394.761 635.652 -347.079 694.104C-192.888 883.122 156.19 234.142 292.939 644.057C326.668 745.162 282.237 957.052 229.741 999.264C123.187 1084.95 41.897 687.515 -161.77 965.052C-255.044 1092.16 -409.913 1128.74 -412.007 1018.98Z" fill="white" fill-opacity="0.05098"/>
<g filter="url(#filter0_f_1097_3)">
<path d="M1410.02 690.08C1744.19 947.921 1313.99 1170.25 1535.17 1265.75L1535.17 1265.75C1535.93 1266.08 1680.78 1383.05 1785.26 1242.09C1889.74 1101.12 1770.16 930.22 1770.16 930.22C1770.16 930.22 1701.29 763.234 2034.75 804.167C2368.21 845.101 2424.5 253.382 2294.38 105.019C2164.26 -43.3445 1945.92 -70.2861 1866.02 -44.0743C1554.44 58.1285 1820.07 394.788 1420.22 535.615C1345.88 561.797 1355.15 647.747 1410.02 690.08Z" fill="white" fill-opacity="0.05098"/>
</g>
<path d="M771.181 758.317L796.548 798.462L741.633 800.655L767.19 752L771.18 758.316L771.181 758.317ZM774.58 779.835L767.883 769.235L756.22 791.433L781.276 790.432L774.579 779.836L774.58 779.835Z" fill="#202122"/>
<path d="M524.514 443.615L528.112 454.097L538.588 450.501L541.976 460.346L531.494 463.944L535.092 474.42L525.247 477.808L521.647 467.325L511.172 470.922L507.784 461.077L518.266 457.479L514.669 447.003L524.514 443.615Z" fill="#202122"/>
<path d="M706.861 1487.39C709.686 1482.44 714.259 1479.09 719.358 1477.69C724.457 1476.29 730.099 1476.84 735.056 1479.66C740.006 1482.48 743.349 1487.06 744.744 1492.17C746.156 1497.26 745.609 1502.9 742.785 1507.86C739.968 1512.8 735.397 1516.15 730.296 1517.55C725.171 1518.95 719.535 1518.41 714.59 1515.59C709.633 1512.76 706.286 1508.19 704.889 1503.09C703.499 1497.99 704.041 1492.35 706.862 1487.39L706.861 1487.39ZM721.646 1486.04C718.685 1486.85 716.024 1488.8 714.382 1491.68C712.734 1494.57 712.412 1497.85 713.221 1500.79C714.048 1503.76 715.994 1506.42 718.875 1508.07C721.767 1509.71 725.047 1510.04 727.991 1509.23C730.958 1508.42 733.615 1506.47 735.263 1503.57C736.905 1500.69 737.221 1497.41 736.41 1494.45C735.613 1491.49 733.664 1488.83 730.771 1487.19C727.89 1485.54 724.608 1485.23 721.646 1486.04Z" fill="#202122"/>
<g filter="url(#filter1_f_1097_3)">
<path d="M370.361 -154.084C398.333 -203.182 443.643 -236.343 494.15 -250.187C544.656 -264.032 600.541 -258.611 649.639 -230.639C698.68 -202.7 731.795 -157.379 745.606 -106.814C759.589 -56.3453 754.168 -0.458995 726.196 48.6396C698.291 97.6212 653.014 130.724 602.491 144.596C551.726 158.488 495.899 153.099 446.918 125.194C397.819 97.2218 364.659 51.9121 350.814 1.40648C337.049 -49.1702 342.423 -105.044 370.362 -154.085L370.361 -154.084ZM516.816 -167.501C487.489 -159.461 461.119 -140.178 444.861 -111.64C428.535 -82.9844 425.337 -50.5029 433.354 -21.3418C441.54 8.06917 460.822 34.4381 489.359 50.6964C518.015 67.022 550.499 70.2199 579.658 62.2029C609.062 54.1674 635.371 34.8523 651.697 6.19642C667.955 -22.3415 671.096 -54.8574 663.057 -84.1855C655.168 -113.504 635.853 -139.815 607.197 -156.141C578.659 -172.399 546.144 -175.538 516.816 -167.501Z" fill="#202122"/>
</g>
<g filter="url(#filter2_f_1097_3)">
<path d="M862.978 1896.65C885.877 1856.46 922.97 1829.31 964.316 1817.98C1005.66 1806.64 1051.41 1811.08 1091.61 1833.98C1131.75 1856.85 1158.86 1893.95 1170.17 1935.35C1181.61 1976.66 1177.17 2022.41 1154.28 2062.61C1131.43 2102.7 1094.37 2129.8 1053.01 2141.16C1011.45 2152.53 965.747 2148.12 925.649 2125.28C885.456 2102.38 858.307 2065.28 846.976 2023.94C835.706 1982.53 840.106 1936.79 862.978 1896.65L862.978 1896.65Z" fill="#202122"/>
</g>
<path fill-rule="evenodd" clip-rule="evenodd" d="M91.4301 4079.55C179.617 3964.56 480.096 3976.33 138.281 3725.21C78.1147 3681.01 28.3135 3610.29 28.3135 3483.36C28.3135 3457.96 -135.812 3541.39 -133.985 3791.27C-133.044 3919.96 -124.437 3968.02 -112.735 4091.98C-63.6452 4611.9 -72.522 4293.31 91.4288 4079.55H91.4301Z" fill="white" fill-opacity="0.05098"/>
<g filter="url(#filter3_f_1097_3)">
<path d="M-396.826 6498.1C-288.948 6562.31 -336.218 6531.64 -258.935 6630.51L-258.934 6630.51C-241.301 6653.07 -176.478 6691.93 -144.874 6693.82C-61.7707 6698.8 -55.2207 6672.86 -82.4054 6602.5C-170.314 6374.96 566.373 6392.9 277.897 6071.17C206.745 5991.81 0.64267 5925.53 -62.0208 5950.25C-189.214 6000.42 115.868 6267.78 -226.098 6307.36C-382.711 6325.49 -491.156 6441.94 -396.826 6498.1Z" fill="white" fill-opacity="0.05098"/>
</g>
<path d="M1708.14 3837.44C1649.53 3419.44 1243.39 3683.18 1269.9 3443.73H1269.91C1270 3442.9 1240.06 3259.14 1414.26 3238.14C1588.47 3217.14 1677.76 3405.64 1677.76 3405.64C1677.76 3405.64 1788.76 3548.14 1918.26 3238.14C2047.76 2928.14 2589.76 3172.14 2654.26 3358.64C2718.76 3545.14 2634.09 3748.19 2571.76 3804.64C2328.73 4024.77 2167.7 3627.32 1847.4 3905.04C1787.86 3956.67 1717.76 3906.06 1708.14 3837.44Z" fill="white" fill-opacity="0.05098"/>
<path d="M143.673 5441.34C149.377 5441.34 154.551 5439.02 158.289 5435.29C162.027 5431.55 164.345 5426.37 164.345 5420.67C164.345 5414.97 162.023 5409.8 158.278 5406.06C154.55 5402.31 149.376 5400 143.672 5400C137.98 5400 132.814 5402.31 129.073 5406.05C125.317 5409.81 123 5414.98 123 5420.67C123 5426.37 125.317 5431.55 129.055 5435.28C132.805 5439.02 137.974 5441.34 143.672 5441.34L143.673 5441.34ZM152.169 5429.16C149.997 5431.34 146.989 5432.69 143.673 5432.69C140.343 5432.69 137.334 5431.34 135.177 5429.18C133.007 5426.99 131.657 5423.99 131.657 5420.67C131.657 5417.34 133.001 5414.33 135.16 5412.17C137.335 5410 140.343 5408.65 143.673 5408.65C146.989 5408.65 149.997 5410 152.169 5412.17C154.346 5414.33 155.689 5417.34 155.689 5420.67C155.689 5423.99 154.34 5426.99 152.169 5429.16Z" fill="#202122"/>
<path d="M1146.41 6508.91L1124.09 6467L1095 6513.63L1149.93 6515.51L1146.41 6508.91V6508.91ZM1129.4 6495.31L1135.29 6506.37L1110.23 6505.52L1123.51 6484.24L1129.4 6495.31H1129.4Z" fill="#202122"/>
<path d="M1679.33 4751.44L1672 4743.12L1680.32 4735.8L1673.44 4727.99L1665.12 4735.31L1657.8 4727L1649.98 4733.88L1657.31 4742.19L1649 4749.52L1655.88 4757.33L1664.19 4750.01L1671.51 4758.32L1679.33 4751.44Z" fill="#202122"/>
<path d="M1085.67 5301.34C1091.38 5301.34 1096.55 5299.03 1100.29 5295.29C1104.03 5291.55 1106.34 5286.38 1106.34 5280.67C1106.34 5274.98 1104.02 5269.81 1100.28 5266.07C1096.55 5262.32 1091.38 5260 1085.67 5260C1079.98 5260 1074.81 5262.32 1071.07 5266.06C1067.32 5269.81 1065 5274.98 1065 5280.67C1065 5286.38 1067.32 5291.55 1071.06 5295.29C1074.8 5299.02 1079.97 5301.34 1085.67 5301.34L1085.67 5301.34ZM1094.17 5289.17C1092 5291.34 1088.99 5292.69 1085.67 5292.69C1082.34 5292.69 1079.33 5291.35 1077.18 5289.19C1075.01 5287 1073.66 5283.99 1073.66 5280.67C1073.66 5277.34 1075 5274.33 1077.16 5272.18C1079.33 5270 1082.34 5268.66 1085.67 5268.66C1088.99 5268.66 1092 5270.01 1094.17 5272.18C1096.35 5274.33 1097.69 5277.34 1097.69 5280.67C1097.69 5283.99 1096.34 5287 1094.17 5289.17Z" fill="#202122"/>
<path d="M1899.76 6177.53C1956.27 6177.53 2007.51 6154.58 2044.54 6117.54C2081.57 6080.51 2104.53 6029.27 2104.53 5972.77C2104.53 5916.33 2081.54 5865.12 2044.44 5828.09C2007.51 5790.95 1956.27 5768 1899.76 5768C1843.39 5768 1792.22 5790.95 1755.15 5827.99C1717.95 5865.22 1695 5916.39 1695 5972.77C1695 6029.27 1717.95 6080.51 1754.98 6117.54C1792.12 6154.54 1843.32 6177.53 1899.76 6177.53H1899.76ZM1983.92 6056.92C1962.42 6078.42 1932.61 6091.79 1899.76 6091.79C1866.78 6091.79 1836.98 6078.49 1815.61 6057.09C1794.11 6035.42 1780.74 6005.61 1780.74 5972.77C1780.74 5939.79 1794.04 5909.98 1815.44 5888.61C1836.98 5867.04 1866.78 5853.74 1899.76 5853.74C1932.61 5853.74 1962.41 5867.11 1983.92 5888.61C2005.49 5909.98 2018.79 5939.79 2018.79 5972.77C2018.79 6005.61 2005.42 6035.42 1983.92 6056.92Z" fill="#202122"/>
<path d="M1862.63 7913.25C1908.88 7913.25 1950.84 7894.46 1981.15 7864.15C2011.46 7833.84 2030.25 7791.88 2030.25 7745.63C2030.25 7699.42 2011.44 7657.5 1981.07 7627.19C1950.84 7596.79 1908.88 7578 1862.63 7578C1816.48 7578 1774.59 7596.79 1744.24 7627.11C1713.79 7657.59 1695 7699.48 1695 7745.63C1695 7791.89 1713.79 7833.84 1744.11 7864.15C1774.51 7894.44 1816.42 7913.26 1862.63 7913.26L1862.63 7913.25Z" fill="#202122"/>
<g filter="url(#filter4_f_1097_3)">
<path d="M1267.76 4013C1324.27 4013 1375.51 4035.95 1412.54 4072.99C1449.57 4110.02 1472.53 4161.26 1472.53 4217.76C1472.53 4274.2 1449.54 4325.41 1412.44 4362.44C1375.51 4399.58 1324.27 4422.53 1267.76 4422.53C1211.39 4422.53 1160.22 4399.58 1123.15 4362.54C1085.95 4325.31 1063 4274.14 1063 4217.76C1063 4161.26 1085.95 4110.02 1122.98 4072.99C1160.12 4035.99 1211.32 4013 1267.76 4013H1267.76ZM1351.92 4133.61C1330.42 4112.11 1300.61 4098.74 1267.76 4098.74C1234.78 4098.74 1204.98 4112.04 1183.61 4133.44C1162.11 4155.11 1148.74 4184.92 1148.74 4217.76C1148.74 4250.74 1162.04 4280.55 1183.44 4301.92C1204.98 4323.49 1234.78 4336.79 1267.76 4336.79C1300.61 4336.79 1330.41 4323.42 1351.92 4301.92C1373.49 4280.55 1386.79 4250.74 1386.79 4217.76C1386.79 4184.92 1373.42 4155.11 1351.92 4133.61Z" fill="#202122"/>
</g>
<path d="M1830.76 1890C1887.27 1890 1938.51 1912.95 1975.54 1949.99C2012.57 1987.02 2035.53 2038.26 2035.53 2094.76C2035.53 2151.2 2012.54 2202.41 1975.44 2239.44C1938.51 2276.58 1887.27 2299.53 1830.76 2299.53C1774.39 2299.53 1723.22 2276.58 1686.15 2239.54C1648.95 2202.31 1626 2151.14 1626 2094.76C1626 2038.26 1648.95 1987.02 1685.98 1949.99C1723.12 1912.99 1774.32 1890 1830.76 1890H1830.76ZM1914.92 2010.61C1893.42 1989.11 1863.61 1975.74 1830.76 1975.74C1797.78 1975.74 1767.98 1989.04 1746.61 2010.44C1725.11 2032.11 1711.74 2061.92 1711.74 2094.76C1711.74 2127.74 1725.04 2157.55 1746.44 2178.92C1767.98 2200.49 1797.78 2213.79 1830.76 2213.79C1863.61 2213.79 1893.41 2200.42 1914.92 2178.92C1936.49 2157.55 1949.79 2127.74 1949.79 2094.76C1949.79 2061.92 1936.42 2032.11 1914.92 2010.61Z" fill="#202122"/>
<defs>
<filter id="filter0_f_1097_3" x="1316.67" y="-102.932" width="1092.4" height="1464.54" filterUnits="userSpaceOnUse" color-interpolation-filters="sRGB">
<feFlood flood-opacity="0" result="BackgroundImageFix"/>
<feBlend mode="normal" in="SourceGraphic" in2="BackgroundImageFix" result="shape"/>
<feGaussianBlur stdDeviation="25" result="effect1_foregroundBlur_1097_3"/>
</filter>
<filter id="filter1_f_1097_3" x="293.541" y="-307.503" width="509.481" height="509.461" filterUnits="userSpaceOnUse" color-interpolation-filters="sRGB">
<feFlood flood-opacity="0" result="BackgroundImageFix"/>
<feBlend mode="normal" in="SourceGraphic" in2="BackgroundImageFix" result="shape"/>
<feGaussianBlur stdDeviation="25" result="effect1_foregroundBlur_1097_3"/>
</filter>
<filter id="filter2_f_1097_3" x="791.021" y="1761.99" width="435.217" height="435.199" filterUnits="userSpaceOnUse" color-interpolation-filters="sRGB">
<feFlood flood-opacity="0" result="BackgroundImageFix"/>
<feBlend mode="normal" in="SourceGraphic" in2="BackgroundImageFix" result="shape"/>
<feGaussianBlur stdDeviation="25" result="effect1_foregroundBlur_1097_3"/>
</filter>
<filter id="filter3_f_1097_3" x="-482" y="5895" width="877.272" height="849.417" filterUnits="userSpaceOnUse" color-interpolation-filters="sRGB">
<feFlood flood-opacity="0" result="BackgroundImageFix"/>
<feBlend mode="normal" in="SourceGraphic" in2="BackgroundImageFix" result="shape"/>
<feGaussianBlur stdDeviation="25" result="effect1_foregroundBlur_1097_3"/>
</filter>
<filter id="filter4_f_1097_3" x="1013" y="3963" width="509.528" height="509.531" filterUnits="userSpaceOnUse" color-interpolation-filters="sRGB">
<feFlood flood-opacity="0" result="BackgroundImageFix"/>
<feBlend mode="normal" in="SourceGraphic" in2="BackgroundImageFix" result="shape"/>
<feGaussianBlur stdDeviation="25" result="effect1_foregroundBlur_1097_3"/>
</filter>
</defs>
</svg>
