<svg width="1920" height="2004" viewBox="0 0 1920 2004" fill="none" xmlns="http://www.w3.org/2000/svg"><path fill-rule="evenodd" clip-rule="evenodd" d="M94.43 1018.55c88.187-114.989 388.666-103.225 46.851-354.342-60.166-44.203-109.968-114.916-109.968-241.85 0-25.399-164.125 58.028-162.298 307.914.941 128.683 9.548 176.748 21.25 300.708 49.09 519.92 40.213 201.33 204.164-12.43h.001z" fill="#fff" fill-opacity=".051"/><path d="M305.174 1807.1c107.878 64.21 60.608 33.54 137.891 132.41h.001c17.633 22.56 82.456 61.42 114.06 63.31 83.103 4.99 89.653-20.95 62.469-91.32-87.909-227.54 648.775-209.6 360.302-531.33-71.152-79.35-277.254-145.64-339.918-120.92-127.193 50.17 177.889 317.54-164.077 357.11-156.613 18.13-265.058 134.59-170.728 190.74zM1024.14 747.439c-58.613-417.992-464.752-154.253-438.236-393.705h.002c.09-.827-29.846-184.59 144.357-205.59s263.5 167.5 263.5 167.5 110.997 142.5 240.497-167.5 671.5-66 736 120.5-20.17 389.547-82.5 446c-243.03 220.132-404.06-177.322-724.36 100.395-59.54 51.628-129.64 1.027-139.26-67.6z" fill="#fff" fill-opacity=".051"/><path d="M164.673 1415.34c5.704 0 10.878-2.31 14.616-6.05a20.622 20.622 0 006.056-14.62c0-5.7-2.322-10.86-6.067-14.6a20.541 20.541 0 00-14.606-6.07c-5.692 0-10.858 2.32-14.599 6.05-3.756 3.76-6.073 8.93-6.073 14.62 0 5.71 2.317 10.88 6.055 14.62 3.75 3.73 8.919 6.05 14.617 6.05h.001zm8.496-12.17a11.996 11.996 0 01-8.496 3.52 11.97 11.97 0 01-8.496-3.5c-2.17-2.19-3.52-5.2-3.52-8.52 0-3.33 1.344-6.34 3.503-8.49a11.975 11.975 0 018.513-3.52c3.316 0 6.324 1.34 8.496 3.52a11.89 11.89 0 013.52 8.49c0 3.32-1.349 6.33-3.52 8.5zm630.245-396.26L781.09 965 752 1011.63l54.927 1.88-3.513-6.6zM786.4 993.308l5.895 11.062-25.062-.85 13.274-21.276 5.891 11.064h.002zm501.93 56.032l-7.33-8.32 8.32-7.32-6.88-7.82-8.32 7.33-7.32-8.31-7.82 6.88 7.33 8.31-8.31 7.32 6.88 7.82 8.31-7.33 7.32 8.31 7.82-6.87zM471.673 374.217a20.614 20.614 0 0014.616-6.056 20.612 20.612 0 006.056-14.616 20.589 20.589 0 00-6.067-14.606 20.541 20.541 0 00-14.606-6.067c-5.691 0-10.858 2.317-14.599 6.056-3.756 3.759-6.073 8.925-6.073 14.616a20.614 20.614 0 006.056 14.616c3.749 3.735 8.918 6.056 14.616 6.056l.001.001zm8.496-12.176a11.992 11.992 0 01-8.496 3.521 11.976 11.976 0 01-8.496-3.504 12.064 12.064 0 01-3.52-8.513 11.988 11.988 0 0112.016-12.016c3.316 0 6.324 1.35 8.496 3.521a11.915 11.915 0 013.52 8.495 11.99 11.99 0 01-3.52 8.496zM1845.76 1963.52c56.51 0 107.75-22.95 144.78-59.98s59.99-88.27 59.99-144.78c0-56.44-22.99-107.65-60.09-144.68-36.93-37.13-88.17-60.09-144.68-60.09-56.37 0-107.54 22.96-144.61 59.99-37.2 37.23-60.15 88.4-60.15 144.78 0 56.51 22.95 107.75 59.98 144.78 37.14 36.99 88.34 59.98 144.78 59.98zm84.16-120.61c-21.5 21.5-51.31 34.87-84.16 34.87-32.98 0-62.78-13.3-84.15-34.7-21.5-21.67-34.87-51.48-34.87-84.32 0-32.98 13.3-62.79 34.7-84.16 21.54-21.57 51.34-34.87 84.32-34.87 32.85 0 62.65 13.37 84.16 34.87 21.57 21.37 34.87 51.18 34.87 84.16 0 32.84-13.37 62.65-34.87 84.15zm-280.29-489.65c46.25 0 88.21-18.79 118.52-49.11 30.31-30.31 49.1-72.26 49.1-118.52 0-46.2-18.81-88.13-49.18-118.44-30.23-30.4-72.19-49.19-118.44-49.19-46.15 0-88.04 18.79-118.39 49.11-30.45 30.48-49.24 72.37-49.24 118.52 0 46.26 18.79 88.21 49.11 118.52 30.4 30.29 72.31 49.11 118.52 49.11z" fill="#202122"/></svg>