<svg width="1920" height="1625" viewBox="0 0 1920 1625" fill="none" xmlns="http://www.w3.org/2000/svg"><path fill-rule="evenodd" clip-rule="evenodd" d="M1849.92 955.226c-88.19 114.984-388.66 103.224-46.85 354.344 60.17 44.2 109.97 114.91 109.97 241.85 0 25.39 164.12-58.03 162.3-307.92-.94-128.68-9.55-176.75-21.25-300.702-49.09-519.926-40.22-201.338-204.17 12.428z" fill="#fff" fill-opacity=".051"/><path d="M1618.18 196.322c-107.88-64.217-60.61-33.541-137.89-132.415-17.64-22.56-82.46-61.417-114.06-63.312-83.11-4.98-89.66 20.959-62.47 91.324 87.91 227.541-648.782 209.596-360.306 531.329 71.156 79.354 277.256 145.637 339.916 120.919 127.2-50.169-177.89-317.534 164.08-357.112 156.61-18.126 265.06-134.582 170.73-190.733zM700.21 876.781c58.615 417.989 464.75 154.249 438.24 393.709-.09.82 29.84 184.59-144.361 205.59-174.204 21-263.5-167.5-263.5-167.5s-111-142.5-240.5 167.5-671.5 66-736-120.5 20.17-389.55 82.5-446.004C79.625 689.445 240.653 1086.9 560.949 809.181c59.546-51.628 129.638-1.027 139.261 67.6z" fill="#fff" fill-opacity=".051"/><path d="M1782.68 480c-5.71 0-10.88 2.317-14.62 6.055a20.607 20.607 0 00-6.05 14.616c0 5.698 2.32 10.867 6.06 14.607a20.562 20.562 0 0014.61 6.066 20.61 20.61 0 0014.6-6.055c3.75-3.76 6.07-8.925 6.07-14.617 0-5.704-2.32-10.878-6.05-14.616-3.75-3.735-8.92-6.055-14.62-6.055V480zm-8.5 12.176a11.986 11.986 0 018.5-3.52c3.33 0 6.34 1.342 8.49 3.502a12.066 12.066 0 013.52 8.513c0 3.33-1.34 6.338-3.5 8.496a11.971 11.971 0 01-8.51 3.52 11.99 11.99 0 01-8.5-3.52 11.946 11.946 0 01-3.52-8.496c0-3.316 1.35-6.324 3.52-8.495zm-541.24 517.414l22.32 41.92 29.09-46.63-54.93-1.88 3.52 6.59zm17.01 13.61l-5.89-11.07 25.06.86-13.28 21.27-5.89-11.06zM644.02 527.877l7.327 8.314-8.311 7.323 6.877 7.817 8.316-7.326 7.321 8.312 7.817-6.877-7.326-8.317 8.311-7.322-6.877-7.817-8.316 7.327-7.322-8.311-7.817 6.877zM1646.68 743c-5.71 0-10.88 2.317-14.62 6.056a20.605 20.605 0 00-6.05 14.616c0 5.697 2.32 10.867 6.06 14.606 3.73 3.75 8.9 6.067 14.61 6.067 5.69 0 10.86-2.317 14.6-6.056 3.75-3.758 6.07-8.925 6.07-14.616 0-5.705-2.32-10.878-6.05-14.616-3.75-3.735-8.92-6.056-14.62-6.056V743zm-8.5 12.176a11.99 11.99 0 018.5-3.52c3.33 0 6.34 1.343 8.49 3.503a12.066 12.066 0 013.52 8.513c0 3.329-1.34 6.338-3.5 8.496a11.975 11.975 0 01-8.51 3.52c-3.32 0-6.33-1.35-8.5-3.52a11.948 11.948 0 01-3.52-8.496c0-3.316 1.35-6.324 3.52-8.496zM125.588 251c-56.507 0-107.75 22.954-144.78 59.986-37.03 37.03-59.985 88.271-59.985 144.779 0 56.44 22.987 107.649 60.086 144.679 36.93 37.132 88.172 60.087 144.679 60.087 56.373 0 107.548-22.955 144.611-59.986 37.2-37.232 60.153-88.407 60.153-144.78 0-56.508-22.955-107.749-59.985-144.779C233.236 273.989 182.027 251 125.587 251h.001zM41.433 371.611c21.502-21.503 51.31-34.87 84.155-34.87 32.98 0 62.786 13.3 84.155 34.702 21.502 21.671 34.87 51.477 34.87 84.322 0 32.98-13.301 62.787-34.702 84.155-21.537 21.571-51.343 34.869-84.323 34.869-32.844 0-62.651-13.367-84.155-34.869-21.57-21.368-34.87-51.175-34.87-84.155 0-32.845 13.369-62.651 34.87-84.154z" fill="#202122"/></svg>