<svg width="97" height="89" viewBox="0 0 97 89" fill="none" xmlns="http://www.w3.org/2000/svg"><path fill-rule="evenodd" clip-rule="evenodd" d="M58.463 70.402c.3-.8.508-1.355.573-1.535 2.04-5.6 4.295-11.366 6.17-16.771l6.2 1.705c2.132.604 4.115 1.136 6.065 1.712 4.585 1.357 8.015 1.67 10.016 5.73.36.732.686 1.693.982 2.692l1.544-1.417c-1.79-5.654-5.015-6.964-10.357-8.406-2.582-.698-5.099-1.495-7.725-2.162-1.338-.339-2.584-.74-3.898-1.092-2.038-.548-2.674-.484-3.338-1.572-1.164-1.902-2.532-4.086-4.043-5.755.218-.81.723-1.622 1.054-2.584.27-.78.605-1.81.782-2.663.523-2.526 1.302-.43 3.371-3.688 1.902-2.992 2.72-9.334-.454-10.486.084-1.534.452-3.192.515-4.902.064-1.746-.01-3.418-.241-4.99C63.792 1.404 50.154-3.021 40.477 2.063c-6.75 3.55-8.937 9.872-8.634 17.295.076 1.844.392 3.056.517 4.747-3.408 1.22-2.116 7.986-.462 10.495 2.2 3.345 2.761 1.136 3.514 3.653.292.975.563 1.67.988 2.633 1.472 3.341 1.179 2.178.219 3.103L33.185 49.1c-.448.696-.482.945-1.356 1.18-.6.16-1.21.32-1.871.511L18.35 54.048c-2.899.779-4.806 1.213-7 2.877-1.72 1.305-2.998 3.381-3.774 6.126L1.63 84.269c-.157.55-.282 1.511-.637 1.807v1.08c1.184.637.75.526 2.544.522h33.512l1.876-1.936-21.779-.014c-.227-1.747.064-12.76-.048-15.78-.057-1.524-1.953-2.137-1.95.61.003 3.505.16 12.262-.055 15.19H3.342c.019-1.22 1.3-5.09 1.653-6.369.827-2.987 4.406-16.48 5.335-18.232 2.196-4.146 5.511-4.286 10.07-5.665l12.157-3.388c.324.947 7.508 20.18 10.735 29.145l1.515-1.563c-.189-.634-.308-1.118-.3-1.307.062-1.572 1.443-10.444 1.744-12.99.198-1.668.632-2.679.12-4.345-1.064-3.458-1.8-3.666-.857-5.405 1.065-1.965.15-1.481 5.91-1.428.37.514.593 1.017.93 1.622.42.754.476.837.184 1.74-1.732 5.36-1.551 3.27-.995 8.073.122 1.05.5 3.614.87 6.193l1.682-1.735-1.032-7.654c0-.447.823-3 1.055-3.419 1.088.369 1.915 4.492 3.602 3.448.712-.44 2.393-3.777 3.114-4.217-.08.553-2.196 6.274-3.918 10.816l1.546 1.335.001-.001zm34.654 5.852l-1.328 1.292c-.604-.622-1.202-.933-1.793-.933-.35 0-.631.094-.85.28-.218.186-.326.4-.326.645 0 .208.096.413.289.616.188.204.568.426 1.14.661 1.018.424 1.716.784 2.09 1.083.377.3.665.657.867 1.076.202.42.303.888.303 1.405a3.25 3.25 0 01-.325 1.444 2.85 2.85 0 01-.83 1.048c-.34.256-.828.451-1.463.586v1.822h-1.296v-1.794c-.601-.068-1.11-.219-1.532-.451a6.575 6.575 0 01-1.607-1.277l1.304-1.337c.84.895 1.65 1.342 2.434 1.342a1.42 1.42 0 001.027-.417c.287-.277.43-.608.43-.984 0-.318-.092-.596-.274-.836-.188-.237-.55-.483-1.084-.73-1.091-.507-1.828-.906-2.21-1.203-.386-.297-.674-.629-.864-.998a2.548 2.548 0 01-.285-1.182c0-.694.252-1.288.757-1.782.5-.494 1.137-.758 1.904-.796v-.691h1.296v.776c.443.106.822.247 1.13.426.31.178.674.483 1.097.91l-.001-.001zM44.41 87.15c-.517.553-.087 1.45.667 1.389a.816.816 0 00.524-.254L56.496 76.77l13.2 11.406a.818.818 0 001.09-.017l20.327-18.65 2.345 2.572 2.862-8.465-8.66 2.106 2.345 2.571L70.216 86.45l-13.23-11.43a.805.805 0 00-.617-.207.814.814 0 00-.524.254L44.41 87.152v-.001zm38.127-17.774c-.218-.583-.832-.912-1.479-.474-.517.35-.39 1.314-.39 2.103l.001.084 1.867-1.713zm-37.851-6.815c-.117 2.118-1.324 9.142-1.612 12.086-.131-.126-.104-.077-.235-.278l-.062-.101c-.494-.866-5.936-16.15-5.951-16.248.101.194 3.091 4.365 3.119 4.386 1.224.961 1.863-.894 2.885-2.424.724-1.08.409-.829.814-.965.285.515 1.074 2.968 1.042 3.543v.001zm8.58-9.122c.417-.818 2.62-2.82 3.479-3.673l3.51-3.552c.427.354 2.844 4.084 3.143 4.673-.354.698-1.073 1.645-1.557 2.343-.651.943-4.175 6.401-4.73 6.622-1.398-2.083-2.684-4.135-3.847-6.413h.001zm-18.902-2.552c.301-.59 2.642-4.259 3.145-4.669.664.662 6.597 6.52 6.984 7.22-.63 1.073-1.209 2.368-1.852 3.342-.677 1.029-1.309 2.058-1.99 3.072-.637-.254-4.123-5.736-4.792-6.71-.438-.641-1.157-1.585-1.496-2.255h.001zm19.696-1.27c-.235.476-1.484 1.622-1.95 2.108-.563.587-.509.491-1.576.477-3.783-.05-3.873.532-5.323-.934-.449-.454-1.79-1.657-1.979-2.114 4.964 2.557 6.368 1.879 10.828.463zm6.427-34.703c.523 1.816 1.028 3.703 1.533 5.514.255.918 1.052 4.824 1.893 5.163.651.262.826.105 1.186.616 1.247 1.761.213 7.352-2.284 8.787-.765.439-1.71.466-1.964 1.622-.567 2.582-1.23 5.442-2.93 7.423-1.823 2.125-4.927 4.874-9.04 4.865-3.999-.007-7.088-3.143-8.728-5.33-2.258-3.012-2.264-4.434-3.282-7.21-.34-.925-1.32-1-2.017-1.432-2.02-1.254-3.093-5.324-2.607-7.679.335-1.622.714-1.193 1.707-1.705.751-.39 2.91-9.217 3.322-10.634.474-.048 9.175 2.247 17.8.927l5.41-.929.002.002zm-26.57 4.77c-.69-1.386.186-6.195.574-7.561 3.829-13.446 24.85-13.754 28.845.224.372 1.3 1.12 6.164.51 7.443-.352-.701-1.045-3.684-1.315-4.661-1.381-4.99.031-.842-13.65-.842-13.715 0-12.234-4.171-13.648.835-.31 1.097-.868 3.667-1.317 4.562zM73.963 76.77c.18.048.234-.02.248.248l1.768-1.623c-.222-.928-.935-.518-3.153-.708-.4-.597-.74-3.19-4.038-3.23-3.006-.038-3.52 1.756-4.222 3.26-.43 0-.8-.007-1.126-.012l2.107 1.82c2.29-.013 5.201.054 7.128.041.19 0 .607-.026.766-.014 1.07.083.328-.077.521.22v-.002zm-7.245-2.047c.174-1.866 3.794-1.76 3.942-.016l-1.127.012h-1.348l-1.468.004z" fill="#FF4C4C"/></svg>