<svg width="97" height="92" viewBox="0 0 97 92" fill="none" xmlns="http://www.w3.org/2000/svg"><path fill-rule="evenodd" clip-rule="evenodd" d="M52.923 89.026c.058-.787 5.708-15.752 6.11-16.856 2.04-5.6 4.296-11.366 6.171-16.771l6.198 1.705c2.132.604 4.116 1.136 6.067 1.712 4.583 1.357 8.015 1.67 10.016 5.731.778 1.58 1.397 4.226 1.89 6.035.672 2.468 5.023 17.292 5.044 18.47H82.667c-.492-4.045.273-13.26-.06-16.062-.09-.76-.797-1.291-1.552-.781-.517.349-.39 1.314-.39 2.102.003 4.58.126 10.291-.05 14.727l-27.692-.011zm13.381-62.33c-.195.317-.502.513-.694.801a2.271 2.271 0 00-.207-.085c.085-1.533.451-3.191.514-4.901.065-1.746-.007-3.419-.239-4.99C63.79 4.705 50.153.28 40.477 5.365c-6.752 3.549-8.938 9.87-8.634 17.294.075 1.844.392 3.056.514 4.748l-.06.023c-.143-.265-.392-.526-.59-.735h-.881l-.002-.376c0-6.732.574-12.81 3.138-17.144C36.47 4.935 40.97 2.31 48.88 2.31c7.908 0 12.409 2.624 14.918 6.865 2.563 4.333 3.137 10.412 3.137 17.144 0 .126 0 .251-.002.376h-.628zm-.88 3.518a209.9 209.9 0 00-.008 3.547c-.386 1.888-1.292 3.785-2.603 4.538-.764.438-1.71.466-1.964 1.622-.567 2.581-1.23 5.441-2.929 7.423-1.823 2.125-4.927 4.874-9.041 4.865-3.999-.007-7.088-3.143-8.727-5.33a21.53 21.53 0 01-.517-.717l.657.33c.62.306 1.406.426 1.716 1.136.048.111.056.172.117.285l.155.207c.353.431.806.742 1.38.844.797.143 1.433-.005 2.037-.541 1.167-1.035 1.007-2.952-.355-3.757-.653-.386-1.04-.343-1.932-.041-1.33.449-1.006.588-2.183.103-.612-.253-1.808-.829-3.182-1.542-.411-1.08-.668-2.13-1.177-3.517-.34-.924-1.32-1-2.017-1.431-1.008-.627-1.782-1.956-2.242-3.423.024-1.494.064-3.85.032-5.34.282-.353.668-.29 1.31-.622.752-.389 2.91-9.216 3.322-10.634.474-.048 9.177 2.248 17.8.928l5.412-.929c.523 1.816 1.027 3.703 1.53 5.514.257.918 1.055 4.824 1.896 5.163.65.262.824.105 1.186.616.135.192.243.43.326.703zm.044 8.255c.145 1.323 1.047 1.84 2.472 1.84 1.059 0 1.755-.292 2.168-1.09.293-.568.216-1.207.216-1.84 0-1.812.007-7.192.003-9.004 0-.474-.095-.687-.289-1.03a1.723 1.723 0 00-.59-.649h-.84c.003-.124.003-.25.003-.376 0-6.99-.617-13.337-3.373-17.997C62.427 3.571 57.481.631 48.88.631 40.277.63 35.33 3.57 32.52 8.323c-2.756 4.66-3.374 11.007-3.374 17.997 0 .127 0 .252.003.376h-.333a1.642 1.642 0 01-.136.093c-.802.503-.963.627-.96 1.755v9.082c0 1.352.337 1.968.8 2.264.499 0 .938.006 1.326.015 1.362 1.54 3.367 2.563 6.551 4.283 1.474 3.341 1.18 2.178.22 3.103l-3.433 5.112c-.448.696-.482.945-1.356 1.18-.6.161-1.21.32-1.872.511l-11.608 3.257c-2.899.779-4.805 1.214-7 2.877-1.72 1.305-2.997 3.381-3.773 6.126L1.629 87.572c-.157.55-.283 1.512-.637 1.808v1.079c1.184.637.749.526 2.544.522h90.69c1.56.003 1.474.184 2.543-.572v-.844c-.272-.323-5.656-19.866-6.557-23.075-1.746-6.222-5.011-7.576-10.556-9.073-2.584-.698-5.099-1.496-7.725-2.162-1.34-.34-2.584-.74-3.898-1.093-2.038-.548-2.674-.484-3.34-1.572-1.162-1.901-2.531-4.086-4.043-5.754.219-.81.724-1.622 1.056-2.584.27-.78.605-1.81.782-2.664.487-2.36 1.2-.684 2.982-3.116l-.002-.003zM35.485 41.8c-1.103-.622-2.17-1.26-3.02-1.836.367-.08.147-.38.022-1.24 1.718 2.14 2.242.556 2.922 2.83l.076.246zM3.34 89.05c.019-1.22 1.3-5.089 1.653-6.368.825-2.987 4.405-16.48 5.334-18.232 2.197-4.146 5.512-4.286 10.07-5.666l12.156-3.388c.418 1.22 12.198 32.726 12.279 33.653l-27.691-.019c-.226-1.747.065-12.759-.048-15.78-.056-1.523-1.952-2.136-1.948.611.003 3.504.16 12.262-.055 15.189H3.34zm50.775-26.727c1.089.368 1.916 4.492 3.602 3.448.712-.44 2.392-3.777 3.114-4.217-.134.925-5.947 16.267-6.117 16.448l-1.653-12.26c0-.447.822-3 1.054-3.419zm-9.432 3.544c-.12 2.118-1.325 9.142-1.613 12.086-.131-.126-.103-.077-.235-.278a2.086 2.086 0 01-.061-.101c-.496-.866-5.937-16.15-5.952-16.248.101.194 3.091 4.365 3.118 4.386 1.224.961 1.864-.894 2.887-2.424.723-1.08.409-.829.813-.966.285.516 1.074 2.969 1.043 3.544zm2.399 23.169c-.438-.593-2.61-6.572-2.578-7.364.061-1.572 1.442-10.445 1.744-12.991.197-1.667.63-2.678.119-4.344-1.064-3.458-1.8-3.667-.857-5.405 1.065-1.965.15-1.481 5.912-1.429.37.514.592 1.017.929 1.623.42.754.475.836.184 1.74-1.732 5.36-1.55 3.269-.994 8.073.263 2.268 1.718 11.615 1.727 12.883.004.802-2.313 6.835-2.594 7.227l-3.592-.013zm6.18-32.291c.417-.818 2.62-2.82 3.479-3.673l3.51-3.552c.427.354 2.844 4.084 3.143 4.673-.354.698-1.075 1.645-1.557 2.343-.652.943-4.176 6.4-4.73 6.622-1.399-2.083-2.684-4.135-3.847-6.413h.001zM34.36 54.192c.301-.59 2.641-4.259 3.143-4.669.665.662 6.598 6.52 6.984 7.22-.629 1.073-1.208 2.367-1.85 3.342-.677 1.028-1.31 2.058-1.99 3.072-.637-.254-4.123-5.736-4.792-6.71-.438-.641-1.157-1.585-1.496-2.255h.001zm19.695-1.27c-.234.476-1.484 1.622-1.95 2.108-.563.587-.508.491-1.575.477-3.783-.05-3.873.532-5.323-.934-.449-.454-1.79-1.657-1.979-2.114 4.964 2.556 6.367 1.878 10.827.463zM33.913 22.988c-.689-1.387.186-6.195.575-7.561 3.828-13.446 24.848-13.755 28.845.224.372 1.3 1.12 6.164.511 7.442-.352-.7-1.046-3.683-1.316-4.66-1.38-4.99.032-.842-13.65-.842-13.715 0-12.233-4.171-13.648.835-.31 1.097-.868 3.667-1.317 4.562zm40.048 57.085c.271.073.26-.122.243.993l-.034 4.045c-1.197.272-9.376.182-10.953.064-.077-1.03-.148-4.404.06-5.286 2.178-.14 6.73-.003 9.397-.022.189 0 .606-.025.765-.013 1.07.083.327-.078.522.219zm-7.245-2.047c.174-1.866 3.794-1.76 3.942-.016l-1.128.012h-1.346l-1.468.004zm-2.153-.007c-4.123-.005-3.175-.662-3.23 6.954-.02 2.691.179 2.09 6.702 2.09h4.34c4.265 0 3.697.648 3.697-4.945 0-5.042.276-3.825-3.248-4.13-.4-.597-.74-3.189-4.038-3.23-3.005-.037-3.52 1.757-4.222 3.26l-.001.001z" fill="#FF4C4C"/></svg>