<svg width="24" height="23" viewBox="0 0 24 23" fill="none" xmlns="http://www.w3.org/2000/svg"><path d="M12.492 0c3.174 0 6.052 1.289 8.131 3.369a11.467 11.467 0 013.37 8.13c0 3.17-1.292 6.046-3.376 8.126A11.425 11.425 0 0112.492 23a11.46 11.46 0 01-8.121-3.369 11.47 11.47 0 01-3.379-8.13c0-3.174 1.29-6.052 3.37-8.131A11.493 11.493 0 0112.491 0zm4.727 6.773a6.672 6.672 0 00-4.727-1.958 6.661 6.661 0 00-4.726 1.95A6.71 6.71 0 005.808 11.5a6.67 6.67 0 006.684 6.684 6.67 6.67 0 004.727-1.958 6.63 6.63 0 001.958-4.726c0-1.845-.75-3.518-1.958-4.727z" fill="#FF4C4C"/></svg>