<svg width="87" height="101" viewBox="0 0 87 101" fill="none" xmlns="http://www.w3.org/2000/svg"><path d="M37.472 49.133s-.007.002-.022.003v.003l.014-.002.008-.001v-.003zm19.87.267c.245-.125.545-.273.911-.448l.044-.009c-.39.193-.706.354-.96.489l.005-.032zm-.92-.264v.003l-.014-.002-.008-.001v-.003l.023.003zm-16.08-26.468c2.769-2.671 7.805-8.17 8.85-13.693a38.563 38.563 0 00-4.566-.149c-.677 6.015-2.792 10.971-4.283 13.842zm10.72-13.47c-.911 5.042-4.792 9.984-7.764 13.142 4.066-2.994 10.56-8.228 12.202-12.195a34.405 34.405 0 00-4.437-.946zM30.838 26.977c-4.62.48-11.08.75-17.581-.278a41.979 41.979 0 00-1.704 3.488c5.433 1.638 13.683-.948 19.285-3.21zm-16.565-2.022c6.679.956 13.243.542 17.614.018-8.249-1.877-12.276-4.37-13.589-5.321a31.74 31.74 0 00-.96 1.079 27.108 27.108 0 00-.195.231 34.82 34.82 0 00-2.87 3.993zm41.68 1.042a.926.926 0 01-.3-.054c-.545.063-1.674.558-2.93 1.108-1.923.843-4.11 1.802-5.718 1.802h-2.169l.278-.297c-1.25-.35-2.625-.952-3.886-1.505-1.145-.502-2.186-.958-2.773-1.081a.945.945 0 01-.415.01c-1.128.48-6.247 5.087-10.619 9.551-3.36 3.432-6.182 6.697-6.182 7.74 0 1.457 2.705 5.491 5.093 9.054 2.034 3.033 3.855 5.748 3.855 6.887 0 1.183-.354 2.181-.688 3.123-.246.696-.48 1.354-.48 1.932 0 .532 2.04 3.851 4.293 7.27 2.534 3.847 5.162 7.731 5.27 7.731l.046-.034a.93.93 0 01.405-.307l1.76-1.333c2.128-1.61 4.79-3.624 6.153-3.624h.059c1.363 0 4.024 2.014 6.153 3.624l1.759 1.333c.156.06.297.164.405.307l.046.034c.108 0 2.736-3.884 5.27-7.73 1.992-3.023 3.816-5.967 4.213-6.977-.04-.547-.066-.856-.067-.863a.938.938 0 01.019-.28c-.09-.345-.22-.709-.352-1.083-.334-.942-.687-1.94-.687-3.123 0-1.139 1.82-3.854 3.854-6.887 2.388-3.563 5.093-7.597 5.093-9.054 0-.169-.074-.396-.212-.673a.91.91 0 01-.118-.221c-.839-1.483-3.174-4.111-5.852-6.846l-.095-.097-.678-.6.066-.02a151.643 151.643 0 00-5.215-5.005.938.938 0 01-.645-.585c-1.901-1.708-3.418-2.946-4.01-3.227zm1.89-2.738c2.372-1.122 6.255-3.342 9.463-7.005a34.084 34.084 0 00-5.66-3.68c.138 4.412-2.213 8.465-3.803 10.685zm10.897-5.796c-3.767 4.307-8.412 6.755-10.831 7.826A56.008 56.008 0 0161.02 27.8c2.02-.9 9.101-4.28 10.182-7.937a39.64 39.64 0 00-.295-.311 37.612 37.612 0 00-2.168-2.09zm-3.57 52.931c-2.296 7.528-7.256 22.17-12.77 28.325a37.335 37.335 0 001.543-.247 35.608 35.608 0 007.06-2.035c.09-.037.47-.892 1.025-1.808.557-.922 1.11-1.834 1.544-2.261 1.857-5.266 1.854-15.286 1.598-21.974zM49.4 99.028a.943.943 0 01.223-.248c5.37-4.174 10.544-18.68 13.212-27.18-.208.321-.418.644-.63.966-2.814 4.27-6.114 8.582-6.837 8.582-.196 0-.452-.092-.757-.253-1.383.891-5.37 3.32-7.636 3.245-2.265.076-6.253-2.354-7.636-3.245-.305.16-.561.253-.757.253-.722 0-4.023-4.313-6.836-8.582-.131-.2-.262-.399-.39-.597 2.797 8.224 8.406 22.034 15.8 26.764.151.096.266.23.34.38a44.782 44.782 0 001.904-.085zm-4.92.056c-7.809-6.493-13.4-21.732-15.722-29.005.169 7.712 1.069 21.638 5.235 26.934 3 1.156 6.465 1.893 10.488 2.071zm22.263-34.44c.305 4.298 1.219 20.116-1.234 27.86.08.114.15.243.214.386h.001c.105.23.17.487.222.748.776-1.18 1.709-3.638 2.601-5.992.956-2.521 1.87-4.933 2.762-5.98-1.722-9.494-.22-24.823.769-32.741-.895 1.45-1.923 2.983-2.901 4.442-1.863 2.779-3.531 5.267-3.531 5.844 0 .87.297 1.708.577 2.499.303.855.59 1.665.59 2.556 0 .096-.025.223-.07.377zm7.005-13.936c-.957 8.09-2.157 21.797-.618 30.48a2.3 2.3 0 01.416.361c.52.562.89 1.66 1.248 2.723.1.299.2.594.293.855.296-1.232.35-3.226.403-5.174.068-2.49.133-4.91.78-6.16.138-.266.289-.475.45-.638l-2.972-22.447zm.07-9.417c.504.335 6.095 4.037 9.76 5.937a58.84 58.84 0 00-1.587-7.507c-4.83-.214-8.255-.923-10.597-1.669 1.017 1.2 1.858 2.308 2.423 3.239zm11.81 7.127a.94.94 0 01.075.653c.137 1.24.236 2.485.297 3.732.37 7.443-.598 14.93-2.962 21.707-.498 1.429-1.495 1.467-2.667 1.059a10.857 10.857 0 01-1.053-.453c-.641-.302-1.301-.614-1.38-.463-.452.875-.512 3.078-.573 5.344-.08 2.92-.161 5.934-1.205 7.253-.593.75-1.205.766-1.831.271-.572-.451-.937-1.535-1.314-2.653-.195-.577-.393-1.166-.578-1.578-.595.962-1.349 2.95-2.133 5.017-1.245 3.284-2.56 6.75-3.986 7.592-.854.504-1.406.24-1.804-.434-.154-.261-.235-.567-.3-.887a22.3 22.3 0 01-.575 1.022c-.716 1.182-1.44 2.38-1.93 2.578a37.48 37.48 0 01-7.434 2.138 44.156 44.156 0 01-8.119.683c-4.89-.026-9.04-.788-12.582-2.09a.937.937 0 01-.631-.24C19.712 93.457 15.247 80.55 12.499 70.755c-.206 1.094-.478 2.052-.924 2.354-.566.384-1.078.31-1.517-.337-.357-.526-.984-2.096-1.604-3.955-.562-1.685-1.133-3.633-1.503-5.263a196.3 196.3 0 01-.343-1.534c-.25-1.144-.49-2.234-.614-2.71a.926.926 0 01-.146-.278c-.222-.027-.862.341-1.706.448-1.92.244-3.925.499-4.13-.946-.153-1.078 1.178-2.5 2.575-3.993.982-1.05 2.005-2.143 2.331-2.793a1.201 1.201 0 01-.003-.04c0-.006-.04-.405.17-1.18.35-4.88 1.053-9.187 2.017-12.988L3.77 18.88l12.384.351c4.83-5.556 10.195-8.116 13.95-9.3a24.1 24.1 0 00-.593-1.224c-.376-.743-.75-1.483-.885-2.012-.208-.816-.026-1.393.77-1.597.835-.213 3.472 1.12 5.526 2.158.411.209.737.414.99.585-.315-1.11-.947-2.683-1.473-3.993-.666-1.655-1.199-2.981-.663-3.516.454-.454.939-.453 1.462.07.6.6 3.45 3.034 5.777 4.804 1.33 1.01 2.405 1.79 2.54 1.784 5.27-.261 10.084.46 14.423 1.971 5.44 1.895 10.125 5.029 14.023 9.022l13.017-.063-1.041 19.773a.936.936 0 01-.41.728 60.884 60.884 0 012.06 9.997zm-1.77 1.04c-2.418-1.12-6.193-3.453-8.66-5.03 1.643 4.182 6.025 16.017 7.16 25.908 1.483-5.566 2.062-11.517 1.768-17.445a60.086 60.086 0 00-.269-3.433zM7.404 46.124c2.603-3.555 7.913-8.762 18.729-15.49-5.137 1.59-10.976 2.652-15.295 1.294a52.763 52.763 0 00-1.886 5.942 67.683 67.683 0 00-1.548 8.254zm22.424-15.552C12.984 40.534 8.442 46.927 7.227 49.812c5.186-3.699 12.25-7.955 12.75-8.256 1.077-1.892 3.435-4.613 6.106-7.342a112.104 112.104 0 013.746-3.642zm-8.978 16.62c-.61 6.968-1.553 22.277.385 35.638 1.334-8.135 5.684-18.427 5.7-18.466l.223-.53c.073-.725.315-1.41.569-2.124.28-.791.576-1.63.576-2.499 0-.578-1.667-3.065-3.53-5.844-1.38-2.059-2.86-4.266-3.923-6.175zM19.485 83.8c-1.774-11.578-1.36-24.696-.812-32.82-2.267 6.542-5.125 15.56-5.266 16.007l.22.805c1.296 4.748 2.9 10.629 5.858 16.008zm-7.777-17.679c.616-1.94 3.948-12.386 6.154-18.458-2.48 3.447-6.21 8.188-10.016 11.382.185.685.39 1.614.6 2.577.14.639.284 1.294.335 1.52.36 1.582.911 3.463 1.452 5.086.186.556.368 1.078.539 1.542a46 46 0 01.121-.853c.184-1.214.351-2.32.815-2.796zM6.729 57.54c4.019-3.398 7.975-8.62 10.333-11.987-3.023 1.897-7.19 4.589-10.204 6.849a.925.925 0 01-.273.141c-.518 1.018-1.593 2.167-2.631 3.276-1.08 1.156-2.11 2.256-2.082 2.458.055.39 1.012-.526 2.035-.656 1.066-.136 2.105-.268 2.822-.081zm26.085-34.277c-2.676-1.955-6.088-4.931-8.366-8.68a29.4 29.4 0 00-4.82 3.722c1.366.953 5.253 3.229 13.186 4.958zM26.08 13.65c2.962 4.857 7.997 8.346 10.378 9.812-1.7-3.16-4.67-9.43-5.76-11.746a27.482 27.482 0 00-4.618 1.934zm54.649 60.047c-.234-7.101-2.851-16.093-5.008-22.393l2.845 21.485c.504.135 1.032.384 1.554.63.21.1.418.198.609.278zm-48.56-63.26c.748 1.595 3.56 7.575 5.328 11.035.032-4.792-.837-9.489-1.272-11.528-.56-.209-1.308-.587-2.148-1.012-1.05-.53-2.275-1.15-3.135-1.56l.246.49c.362.715.725 1.434.877 1.965.063.22.099.424.104.61zm5.79-1.353c.373 1.672 1.314 6.348 1.409 11.341 1.316-2.802 2.852-6.941 3.398-11.824-.751-.363-1.782-1.066-2.882-1.903-1.1-.835-2.308-1.811-3.357-2.684.553 1.389 1.127 2.899 1.348 3.916.095.44.128.828.084 1.154zm40.099 20.673c-1.893 2.877-5.86 4.785-8.234 5.721 1.789.84 5.32 1.997 11.596 2.339a53.079 53.079 0 00-2.812-7.048c-.179-.334-.363-.671-.55-1.012zm-10.203 4.445c1.73-.574 7.67-2.775 9.112-6.372-.934-1.602-1.938-3.2-2.963-4.631a40.988 40.988 0 00-1.43-1.796c-1.878 3.56-7.42 6.52-10.008 7.75a113.972 113.972 0 015.289 5.049zM54.823 24.21a.933.933 0 01.23-.452c.016-.017 5.468-5.887 4.64-12.098l-.002-.015a33.003 33.003 0 00-1.567-.636c.38 4.308-5.279 11.596-8.419 15.277.75-.288 1.53-.63 2.268-.954 1.067-.468 2.054-.9 2.85-1.122zm1.45-11.588c-3.248 4.971-11.029 10.687-14.065 12.81 1.54.675 3.23 1.397 4.407 1.52 1.549-1.684 8.754-9.718 9.658-14.33zM22.888 88.853a.71.71 0 01.009.056c2.148 2.638 4.796 4.971 8.106 6.739-3.252-6.844-3.982-19.091-4.124-25.945-2.015 5.508-4.892 14.55-3.99 19.15zm32.033-25.284l-6.872 5.888a.95.95 0 01-1.227.006l-7.873-5.901a.949.949 0 01-.33-1.063l-.038.006L36.53 49.4a43.65 43.65 0 00-.911-.448c-1.736-.333-4.9-1.215-10.318-3.513a.948.948 0 01.205-1.808v-.003l10.768-1.901a.951.951 0 011.112.866l1.124 7.184c.016.049.028.1.036.152L40.4 61.85h13.075l1.852-11.922a.942.942 0 01.036-.152l1.124-7.184a.951.951 0 011.112-.866l10.769 1.9v.004a.947.947 0 01.204 1.808c-4.3 1.823-7.178 2.755-9.052 3.229l-2.223 1.026-2.003 12.81-.035-.004a.956.956 0 01-.337 1.07zM73.77 19.847a32.733 32.733 0 011.533 1.96 46.07 46.07 0 012.905 4.285 49.89 49.89 0 012.152 3.993c.74 1.384 1.397 2.684 1.938 3.786l.741-14.068-9.27.044zM8.268 33.367c2.077-6.507 4.633-10.365 6.214-12.308l-8.455-.24 2.24 12.548zm38.707 48.9a.763.763 0 01.059 0c1.502.05 4.306-1.538 5.876-2.51a129.3 129.3 0 01-.884-.665c-1.904-1.44-4.285-3.242-5.022-3.242h-.058c-.737 0-3.117 1.802-5.022 3.242-.306.232-.601.456-.883.665 1.57.972 4.374 2.56 5.875 2.51h.06zm10.359-32.818c.288-.142.658-.319 1.134-.54.157-.032.325-.068.503-.109l-1.655.763.018-.114z" fill="#fff"/></svg>