<svg width="231" height="101" viewBox="0 0 231 101" fill="none" xmlns="http://www.w3.org/2000/svg"><path d="M37.472 49.133s-.007.002-.022.003v.003l.014-.002.008-.001v-.003zm73.532-6.627h-4.812v-23.91c3.6 0 6.755-.222 10.162.736 1.163.327 2.581 1.1 3.479 1.9.171.151.267.204.426.352 3.688 3.41 3.963 9.65 2.468 14.175-.562 1.701-1.604 2.983-2.82 4.043-2.398 2.088-5.612 2.704-8.903 2.704zm-7.644-26.457v29.004c0 .166.118.283.284.283h8.351c2.014 0 4.676-.567 6.139-1.152 1.337-.534 2.347-1.149 3.427-2.02.191-.156.285-.284.485-.436.188-.144.303-.263.479-.44 1.131-1.147 2.302-2.94 2.821-4.467 1.718-5.052 1.474-11.825-1.939-15.978-.161-.195-.245-.316-.424-.496-.194-.195-.237-.304-.423-.497-.14-.146-.284-.297-.433-.416l-1.001-.84a8.336 8.336 0 00-.538-.38c-2.35-1.557-5.512-2.448-8.593-2.448h-8.351a.273.273 0 00-.284.283zm91.516 66.567h-4.813v-23.91c3.6 0 6.755-.222 10.163.736 1.162.327 2.581 1.099 3.479 1.899.904.806 1.011.867 1.829 1.992 1.311 1.804 1.919 4.95 1.919 7.328 0 1.928-.357 3.7-.855 5.208-.689 2.086-2.315 3.922-4.171 5.027-2.133 1.27-4.86 1.72-7.551 1.72zm-7.644-26.457v29.003c0 .166.117.283.283.283h8.352c2.976 0 6.228-.875 8.507-2.39.933-.62 1.008-.81 1.543-1.217.485-.371.566-.581.866-.903 3.903-4.167 4.219-11.202 2.452-16.491-.404-1.21-1.154-2.515-1.957-3.491-.889-1.082-1.634-1.845-2.819-2.63-.812-.537-1.435-.886-2.404-1.275-1.485-.598-4.146-1.172-6.188-1.172h-8.352a.272.272 0 00-.283.283zM135.847 30.48c0 1.113.159 2.357.335 3.273.344 1.788 1.141 3.663 2.085 5.132.891 1.386 1.323 1.797 2.446 2.932 2.095 2.117 5.944 3.731 8.936 3.731 2.455 0 4.15-.269 6.205-1.226 1.034-.481 2.554-1.4 3.404-2.187l.85-.777c2.242-2.451 2.977-4.22 4.031-7.3.079-.23.127-.465-.193-.465h-12.103c-.235 0-1.391 1.946-1.529 2.15-.431.637-.445.688.537.68h9.344l-1.152 1.819a11.208 11.208 0 01-2.641 2.525c-.214.146-.393.238-.618.373-3.886 2.329-8.684 2-12.243-.665-.631-.472-1.007-.876-1.554-1.417-1.884-1.861-2.841-4.53-3.209-7.121-.582-4.096 1.375-8.76 4.723-11.28 4.064-3.06 9.617-3.025 13.493.148 1.544 1.264.897 1.41 2.651-.353.49-.492 1.046-.307-.784-1.797a15.63 15.63 0 00-2.677-1.71 13.275 13.275 0 00-5.196-1.391h-1.532c-2.727.156-5.404 1.143-7.704 2.86-.752.561-1.24 1.074-1.889 1.72l-.809.959c-1.376 1.699-2.342 4.037-2.839 6.147-.176.747-.368 2.428-.368 3.24zm21.729 25.679v29.003c0 .17.047.205.207.204.229-.002.069.051.236-.18l2.388-3.702V58.706h7.644c1.943 0 3.278.688 4.264 1.68.31.31.448.428.691.795 2.61 3.952.159 9.138-5.167 9.126h-2.973c-1.366-.008-.959.007.313 2.093l1.202 1.84c1.578 2.355 3.226 5.1 4.798 7.442.251.374 2.333 3.542 2.392 3.763h2.867c.638-.02.441-.19-.064-.96-.188-.287-.305-.495-.495-.78l-5.86-8.998c-.18-.287-.31-.5-.496-.778-.146-.22-.417-.55-.481-.793.535-.011 1.3-.215 1.715-.337 1.296-.38 2.883-1.388 3.789-2.367 2.262-2.446 3.076-6.249 1.621-9.369-.885-1.898-1.993-3.087-3.795-4.13-.987-.57-2.353-1.057-3.755-1.057h-10.758a.272.272 0 00-.283.283zm43.953-33.036c.277.204 3.633 8.866 3.882 9.49l.648 1.616.637 1.627h-10.263c.103-.442 3.523-8.765 3.832-9.54.203-.51.422-1.017.637-1.556l.627-1.637zm-11.82 22.213h2.902l2.012-4.993.323-.808c.11-.273.222-.6.354-.849h10.121c.059-.218.208-.38.332-.588.138-.234.245-.382.391-.6.171-.258.533-.995.835-1.076l3.539 8.914h2.902c.101-.438-.334-1.255-.567-1.84l-11.112-27.659c-.419.01-.317.045-.576.697l-11.234 27.821c-.151.379-.317.572-.222.98zm-49.757 24.971c-.072.27-.891 1.428-1.145 1.826-.024.039-.051.085-.082.13-.089.137-.023.057-.117.166V58.705h7.644c1.69 0 3.531.707 4.56 2.022 1.743 2.229 2.039 4.804.324 7.176-.64.886-1.537 1.553-2.557 1.971-1.25.512-2.385.433-4.097.433h-4.53zm-4.176-14.148v29.003c0 .17.047.205.207.204.236-.002.168-.092.572-.699l.708-1.06c.232-.348 1.345-1.888 1.345-2.194v-8.277h8.21c1.295 0 2.418-.422 3.348-.827l.683-.378c.2-.114.448-.286.64-.421.785-.555 1.056-.886 1.645-1.54.442-.492.922-1.373 1.211-1.973 1.28-2.657.873-5.871-.732-8.302a6.317 6.317 0 00-.446-.615c-.796-.929-1.827-1.833-2.952-2.355-.865-.402-2.141-.849-3.397-.849H136.06a.272.272 0 00-.284.283zm77.785 0v29.003c0 .166.118.283.283.283h14.934c.231 0 .754-.953 1.005-1.33l.715-1.06c.133-.216.106-.195.05-.44h-14.156v-10.54h8.989c.254 0 .805-1.02 1.004-1.33l.716-1.06c.132-.216.106-.194.049-.44h-9.343c-.087.167-1.249 2.001-1.415 2.123V58.705h12.032c.212 0 .197-.116.291-.275.069-.119.131-.217.219-.347.176-.264.297-.463.467-.736.154-.246.298-.433.453-.68.34-.54.348-.452.269-.79-5.157 0-10.638.057-15.785-.002-.358-.004-.777-.077-.777.284zm-40.98-37.563h10.404v26.457c0 .17.047.205.207.203.229-.002.069.052.236-.18l2.388-3.702V18.596h8.706c.24 0 1.297-1.77 1.486-2.052.321-.477.37-.405.283-.778h-22.082l-1.579 2.39c-.133.217-.106.195-.049.44zm43.032-2.547v29.004c0 .295.255.29.561.288l13.241-.005.864-1.4c.166-.248.267-.442.438-.694.209-.308.344-.355.255-.736h-12.527V15.978c0-.162-.05-.212-.213-.212h-2.335a.273.273 0 00-.284.283zm-35.388 40.11v29.003c0 .17.047.205.207.204.234-.002.167-.092.571-.699.232-.348 2.053-3.025 2.053-3.183V56.088c0-.163-.049-.212-.212-.212h-2.336a.272.272 0 00-.283.283zm-12.669-40.11v29.004c0 .17.046.205.206.203.236-.002.168-.092.572-.699l.708-1.06c.166-.25 1.345-1.982 1.345-2.123V15.978c0-.163-.049-.212-.213-.212h-2.335a.272.272 0 00-.283.283zm-37.795 0v29.004c0 .17.046.205.206.203.23-.002.069.052.237-.18l2.387-3.702V15.978c0-.162-.049-.212-.212-.212h-2.335a.272.272 0 00-.283.283zM57.341 49.4c.246-.125.546-.273.912-.448l.044-.009c-.39.193-.706.354-.96.489l.005-.032zm-.918-.264v.003l-.015-.002-.008-.001v-.003l.023.003zm-16.08-26.468c2.768-2.671 7.804-8.17 8.849-13.693a38.563 38.563 0 00-4.566-.149c-.677 6.015-2.792 10.971-4.283 13.842zm10.72-13.47c-.912 5.042-4.793 9.984-7.765 13.142 4.066-2.994 10.56-8.228 12.202-12.195a34.405 34.405 0 00-4.437-.946zM30.837 26.977c-4.62.48-11.08.75-17.581-.278a41.979 41.979 0 00-1.704 3.488c5.433 1.638 13.683-.948 19.285-3.21zm-16.565-2.022c6.679.956 13.243.542 17.614.018-8.249-1.877-12.276-4.37-13.589-5.321a31.74 31.74 0 00-.96 1.079 27.108 27.108 0 00-.195.231 34.832 34.832 0 00-2.87 3.993zm41.68 1.042a.926.926 0 01-.3-.054c-.545.063-1.674.558-2.93 1.108-1.923.843-4.11 1.802-5.718 1.802h-2.168l.278-.297c-1.25-.35-2.625-.952-3.886-1.505-1.145-.502-2.186-.958-2.773-1.081a.945.945 0 01-.415.01c-1.128.48-6.247 5.087-10.619 9.551-3.36 3.432-6.182 6.697-6.182 7.74 0 1.457 2.705 5.491 5.093 9.054 2.034 3.033 3.855 5.748 3.855 6.887 0 1.183-.354 2.181-.688 3.123-.246.696-.48 1.354-.48 1.932 0 .532 2.04 3.851 4.293 7.27 2.534 3.847 5.162 7.731 5.27 7.731l.046-.034a.93.93 0 01.405-.307l1.76-1.333c2.128-1.61 4.79-3.624 6.153-3.624h.059c1.363 0 4.024 2.014 6.153 3.624l1.759 1.333c.156.06.297.164.405.307l.046.034c.108 0 2.736-3.884 5.27-7.73 1.992-3.023 3.816-5.967 4.213-6.977-.04-.547-.066-.856-.067-.863a.934.934 0 01.019-.28c-.09-.345-.22-.709-.352-1.083-.334-.942-.687-1.94-.687-3.123 0-1.139 1.82-3.854 3.854-6.887 2.388-3.563 5.093-7.597 5.093-9.054 0-.169-.074-.396-.212-.673a.91.91 0 01-.118-.221c-.839-1.483-3.174-4.111-5.852-6.846l-.095-.097-.678-.6.066-.02a151.643 151.643 0 00-5.215-5.005.938.938 0 01-.645-.585c-1.901-1.708-3.418-2.946-4.01-3.227zm1.89-2.738c2.372-1.122 6.255-3.342 9.463-7.005a34.084 34.084 0 00-5.66-3.68c.138 4.412-2.213 8.465-3.803 10.685zm10.897-5.796c-3.767 4.307-8.412 6.755-10.831 7.826A56.008 56.008 0 0161.02 27.8c2.02-.9 9.101-4.28 10.182-7.937a39.64 39.64 0 00-.295-.311 37.615 37.615 0 00-2.168-2.09zM65.17 70.394c-2.296 7.528-7.256 22.17-12.77 28.325a37.335 37.335 0 001.543-.247 35.608 35.608 0 007.06-2.035c.09-.037.47-.892 1.025-1.808.557-.922 1.11-1.835 1.544-2.261 1.857-5.266 1.854-15.286 1.598-21.974zM49.4 99.028a.943.943 0 01.223-.248c5.37-4.174 10.544-18.68 13.212-27.18-.208.321-.418.644-.63.966-2.814 4.27-6.114 8.582-6.837 8.582-.196 0-.452-.092-.757-.253-1.383.891-5.37 3.32-7.636 3.245-2.265.076-6.253-2.354-7.636-3.245-.305.16-.561.253-.757.253-.722 0-4.023-4.313-6.836-8.582-.131-.2-.262-.399-.39-.597 2.797 8.224 8.406 22.034 15.8 26.764.151.096.266.23.34.38a44.62 44.62 0 001.904-.085zm-4.92.056c-7.809-6.493-13.4-21.732-15.722-29.005.169 7.712 1.069 21.638 5.235 26.934 3 1.156 6.465 1.893 10.488 2.071zm22.263-34.44c.305 4.298 1.219 20.116-1.234 27.86.08.114.15.243.214.386h.001c.105.23.17.487.222.748.776-1.18 1.709-3.638 2.601-5.992.956-2.521 1.87-4.933 2.762-5.98-1.722-9.494-.22-24.823.769-32.741-.895 1.45-1.923 2.983-2.901 4.442-1.863 2.779-3.531 5.267-3.531 5.844 0 .87.297 1.708.577 2.499.303.855.59 1.665.59 2.556 0 .096-.025.223-.07.377zm7.005-13.936c-.957 8.09-2.157 21.797-.618 30.48a2.3 2.3 0 01.416.361c.52.562.89 1.66 1.248 2.723.1.299.2.594.293.855.296-1.232.35-3.226.403-5.174.068-2.49.133-4.91.78-6.16.138-.266.289-.475.45-.638l-2.972-22.447zm.07-9.417c.504.335 6.095 4.037 9.76 5.937a58.84 58.84 0 00-1.587-7.507c-4.83-.214-8.255-.923-10.597-1.669 1.017 1.2 1.858 2.308 2.423 3.239zm11.81 7.127a.94.94 0 01.075.653c.137 1.24.236 2.485.297 3.732.37 7.443-.598 14.93-2.962 21.707-.498 1.429-1.495 1.467-2.667 1.059a10.846 10.846 0 01-1.053-.453c-.641-.302-1.301-.614-1.38-.463-.452.875-.512 3.078-.573 5.344-.08 2.92-.161 5.933-1.205 7.253-.593.75-1.205.766-1.831.271-.572-.451-.937-1.535-1.314-2.653-.195-.577-.393-1.166-.578-1.578-.595.962-1.349 2.95-2.133 5.017-1.245 3.284-2.56 6.75-3.986 7.592-.854.504-1.406.24-1.804-.434-.154-.261-.235-.567-.3-.887a22.3 22.3 0 01-.575 1.022c-.716 1.182-1.44 2.38-1.93 2.578a37.48 37.48 0 01-7.434 2.138 44.156 44.156 0 01-8.119.683c-4.89-.026-9.04-.788-12.582-2.09a.937.937 0 01-.631-.24C19.712 93.457 15.247 80.55 12.499 70.755c-.206 1.094-.478 2.052-.924 2.354-.566.384-1.078.31-1.517-.337-.357-.526-.984-2.096-1.604-3.955-.562-1.685-1.133-3.633-1.503-5.263a196.3 196.3 0 01-.343-1.534c-.25-1.144-.49-2.234-.614-2.71a.926.926 0 01-.146-.278c-.222-.027-.862.341-1.706.448-1.92.244-3.925.499-4.13-.946-.153-1.078 1.178-2.5 2.575-3.993.982-1.05 2.005-2.143 2.331-2.793a1.201 1.201 0 01-.003-.04c0-.006-.04-.405.17-1.18.35-4.88 1.053-9.187 2.017-12.988L3.77 18.88l12.384.351c4.83-5.556 10.195-8.116 13.95-9.3a24.1 24.1 0 00-.593-1.224c-.376-.743-.75-1.483-.885-2.012-.208-.816-.026-1.393.77-1.597.835-.213 3.472 1.12 5.526 2.158.411.209.737.414.99.585-.315-1.11-.947-2.683-1.473-3.993-.666-1.655-1.199-2.981-.663-3.516.454-.454.939-.453 1.462.07.6.6 3.45 3.034 5.777 4.804 1.33 1.01 2.405 1.79 2.54 1.784 5.27-.261 10.084.46 14.423 1.971 5.44 1.895 10.125 5.029 14.023 9.022l13.017-.063-1.041 19.773a.936.936 0 01-.41.728 60.877 60.877 0 012.061 9.997zm-1.77 1.04c-2.418-1.12-6.193-3.453-8.66-5.03 1.643 4.182 6.025 16.017 7.16 25.908 1.483-5.566 2.062-11.517 1.768-17.445a60.097 60.097 0 00-.269-3.433zM7.404 46.124c2.603-3.555 7.913-8.762 18.729-15.49-5.137 1.59-10.976 2.652-15.295 1.294a52.763 52.763 0 00-1.886 5.942 67.683 67.683 0 00-1.548 8.254zm22.424-15.552C12.984 40.534 8.442 46.927 7.227 49.812c5.186-3.699 12.25-7.955 12.75-8.256 1.077-1.892 3.435-4.613 6.106-7.342a112.008 112.008 0 013.746-3.642zm-8.978 16.62c-.61 6.968-1.553 22.277.385 35.638 1.334-8.135 5.684-18.427 5.7-18.466l.223-.53c.073-.725.315-1.41.569-2.124.28-.791.576-1.63.576-2.499 0-.578-1.667-3.065-3.53-5.844-1.38-2.059-2.86-4.266-3.923-6.175zM19.485 83.8c-1.774-11.578-1.36-24.696-.812-32.82-2.267 6.542-5.125 15.56-5.266 16.007l.22.805c1.296 4.748 2.9 10.629 5.858 16.008zm-7.777-17.679c.616-1.94 3.948-12.386 6.154-18.458-2.48 3.447-6.21 8.188-10.016 11.382.185.685.39 1.614.6 2.577.14.639.284 1.294.335 1.52.36 1.582.911 3.463 1.452 5.086.186.556.368 1.078.539 1.542a46 46 0 01.121-.853c.184-1.214.351-2.32.815-2.796zM6.729 57.54c4.019-3.398 7.975-8.62 10.333-11.987-3.023 1.897-7.19 4.589-10.204 6.849a.925.925 0 01-.273.141c-.518 1.018-1.593 2.167-2.631 3.276-1.08 1.156-2.11 2.256-2.082 2.458.055.39 1.012-.526 2.035-.656 1.066-.136 2.105-.268 2.822-.081zm26.085-34.277c-2.676-1.955-6.088-4.931-8.366-8.68a29.394 29.394 0 00-4.82 3.722c1.366.953 5.253 3.229 13.186 4.958zM26.08 13.65c2.962 4.857 7.997 8.346 10.378 9.812-1.7-3.16-4.67-9.43-5.76-11.746a27.486 27.486 0 00-4.618 1.934zm54.649 60.047c-.234-7.101-2.851-16.093-5.008-22.393l2.845 21.485c.504.135 1.032.384 1.554.63.21.1.418.198.609.278zm-48.56-63.26c.748 1.595 3.56 7.575 5.328 11.035.032-4.792-.837-9.489-1.272-11.528-.56-.209-1.308-.587-2.148-1.012-1.05-.53-2.275-1.15-3.135-1.56l.246.49c.362.715.725 1.434.877 1.965.063.22.099.424.104.61zm5.79-1.353c.373 1.672 1.314 6.348 1.409 11.341 1.316-2.802 2.852-6.941 3.398-11.824-.751-.363-1.782-1.066-2.882-1.903-1.1-.835-2.308-1.811-3.357-2.684.553 1.389 1.127 2.899 1.348 3.916.095.44.128.828.084 1.154zm40.099 20.673c-1.893 2.877-5.86 4.785-8.234 5.721 1.789.84 5.32 1.997 11.596 2.339a53.079 53.079 0 00-2.812-7.048c-.179-.334-.363-.671-.55-1.012zm-10.203 4.445c1.73-.574 7.67-2.775 9.112-6.372-.934-1.602-1.938-3.2-2.963-4.631a40.988 40.988 0 00-1.43-1.796c-1.878 3.56-7.42 6.52-10.008 7.75a113.974 113.974 0 015.29 5.049h-.001zM54.823 24.21a.933.933 0 01.23-.452c.016-.017 5.468-5.887 4.64-12.098l-.002-.015a33.003 33.003 0 00-1.567-.636c.38 4.308-5.279 11.596-8.419 15.277.75-.288 1.53-.63 2.268-.954 1.067-.468 2.054-.9 2.85-1.122zm1.45-11.588c-3.248 4.971-11.029 10.687-14.065 12.81 1.54.675 3.23 1.397 4.407 1.52 1.549-1.684 8.754-9.718 9.658-14.33zM22.888 88.853a.71.71 0 01.009.056c2.148 2.638 4.796 4.971 8.106 6.739-3.252-6.844-3.982-19.091-4.124-25.945-2.015 5.508-4.892 14.55-3.99 19.15zm32.033-25.284l-6.872 5.888a.95.95 0 01-1.227.006l-7.873-5.901a.949.949 0 01-.33-1.063l-.038.006L36.53 49.4a43.65 43.65 0 00-.911-.448c-1.736-.333-4.9-1.215-10.318-3.513a.948.948 0 01.205-1.808v-.003l10.768-1.901a.951.951 0 011.112.866l1.124 7.184c.016.049.028.1.036.152L40.4 61.85h13.075l1.852-11.922a.942.942 0 01.036-.152l1.124-7.184a.951.951 0 011.112-.866l10.769 1.9v.004a.947.947 0 01.204 1.808c-4.3 1.823-7.178 2.755-9.052 3.229l-2.223 1.026-2.003 12.81-.035-.004a.956.956 0 01-.337 1.07zM73.77 19.847a32.733 32.733 0 011.533 1.96 46.07 46.07 0 012.905 4.285 49.89 49.89 0 012.152 3.993c.74 1.384 1.397 2.684 1.938 3.786l.741-14.068-9.27.044zM8.268 33.367c2.077-6.507 4.633-10.365 6.214-12.308l-8.455-.24 2.24 12.548zm38.707 48.9a.763.763 0 01.059 0c1.502.05 4.306-1.538 5.876-2.51a129.3 129.3 0 01-.884-.665c-1.904-1.44-4.285-3.242-5.022-3.242h-.058c-.737 0-3.117 1.802-5.022 3.242-.306.232-.601.456-.883.665 1.57.972 4.374 2.56 5.875 2.51h.06zm10.359-32.818c.288-.142.658-.319 1.134-.54.157-.032.325-.068.503-.109l-1.655.763.018-.114z" fill="#fff"/></svg>