<svg width="174" height="76" viewBox="0 0 174 76" fill="none" xmlns="http://www.w3.org/2000/svg">
<path d="M28.2257 36.9714C28.2257 36.9714 28.2205 36.9725 28.2093 36.9735L28.2096 36.9759L28.22 36.9742L28.2256 36.9735V36.9714H28.2257ZM83.6136 31.9847H79.9885V13.9929C82.7001 13.9929 85.0769 13.8263 87.6435 14.547C88.5194 14.7928 89.5877 15.3741 90.264 15.9761C90.3923 16.0903 90.4647 16.1299 90.585 16.2413C93.3627 18.8071 93.5699 23.5023 92.4436 26.9079C92.0201 28.188 91.2356 29.1525 90.3193 29.9501C88.5135 31.5215 86.0923 31.9847 83.6136 31.9847H83.6136ZM77.8558 12.0767V33.9012C77.8558 34.0258 77.9445 34.114 78.0693 34.114H84.3602C85.877 34.114 87.8821 33.6873 88.9837 33.2474C89.9911 32.8453 90.7516 32.3829 91.5653 31.7267C91.7093 31.6103 91.7802 31.5139 91.9304 31.3993C92.0726 31.2909 92.1592 31.2013 92.2913 31.0677C93.1436 30.2049 94.0258 28.8553 94.4167 27.7068C95.7103 23.905 95.527 18.8085 92.9559 15.6837C92.8349 15.5368 92.7716 15.4462 92.6366 15.3105C92.4906 15.1639 92.4579 15.0817 92.3181 14.9365C92.2128 14.8272 92.1043 14.7133 91.9919 14.6237L91.2381 13.9922C91.1035 13.889 90.9918 13.8106 90.8326 13.7054C89.0623 12.5343 86.681 11.8635 84.3602 11.8635H78.0693C77.9445 11.8635 77.8558 11.952 77.8558 12.0767V12.0767ZM146.789 62.1665H143.164V44.1744C145.876 44.1744 148.253 44.0078 150.819 44.7285C151.695 44.9743 152.763 45.5556 153.44 46.1576C154.121 46.7645 154.202 46.8099 154.818 47.6564C155.805 49.014 156.263 51.3819 156.263 53.1703C156.263 54.6216 155.995 55.9548 155.619 57.0895C155.1 58.6591 153.876 60.0406 152.477 60.8722C150.871 61.8273 148.817 62.1665 146.789 62.1665V62.1665ZM141.032 42.2582V64.0827C141.032 64.2073 141.12 64.2955 141.245 64.2955H147.536C149.778 64.2955 152.228 63.6365 153.944 62.4963C154.647 62.0297 154.703 61.888 155.106 61.5807C155.472 61.3019 155.533 61.1437 155.759 60.9016C158.698 57.7658 158.936 52.472 157.606 48.4925C157.301 47.5821 156.736 46.5999 156.132 45.8656C155.462 45.0514 154.901 44.4774 154.008 43.8869C153.396 43.4824 152.927 43.22 152.197 42.9269C151.079 42.4776 149.074 42.0453 147.536 42.0453H141.245C141.12 42.0453 141.032 42.1335 141.032 42.2582L141.032 42.2582ZM102.327 22.9357C102.327 23.7731 102.446 24.7088 102.579 25.3983C102.837 26.7434 103.438 28.1544 104.149 29.2599C104.821 30.3032 105.146 30.6119 105.991 31.466C107.569 33.0596 110.469 34.2738 112.723 34.2738C114.572 34.2738 115.848 34.0717 117.397 33.3512C118.175 32.9891 119.32 32.2982 119.96 31.7059L120.601 31.1209C122.29 29.2766 122.843 27.9461 123.638 25.6282C123.697 25.4553 123.733 25.2779 123.492 25.2779H114.375C114.198 25.2779 113.328 26.7423 113.224 26.8958C112.899 27.375 112.888 27.4135 113.628 27.4072L120.666 27.4069L119.798 28.7759C119.264 29.4918 118.572 30.1594 117.81 30.6764C117.648 30.7858 117.513 30.8556 117.344 30.9566C114.416 32.7093 110.802 32.4617 108.122 30.4566C107.646 30.1011 107.364 29.797 106.951 29.39C105.532 27.9894 104.812 25.9809 104.534 24.0317C104.096 20.9497 105.57 17.4398 108.091 15.5438C111.153 13.2412 115.335 13.2679 118.255 15.6552C119.418 16.6062 118.931 16.7166 120.252 15.3897C120.621 15.0195 121.04 15.1588 119.662 14.0376C119.089 13.5717 118.318 13.0877 117.645 12.7506C116.389 12.1222 115.062 11.7802 113.731 11.7038H112.578C110.523 11.8218 108.507 12.5638 106.774 13.856C106.208 14.2782 105.84 14.6639 105.351 15.1497L104.742 15.8719C103.706 17.1503 102.978 18.9095 102.603 20.4972C102.471 21.0593 102.327 22.3241 102.327 22.9356V22.9357ZM118.693 42.2582V64.0827C118.693 64.2101 118.729 64.2368 118.849 64.2358C119.022 64.2344 118.901 64.2743 119.028 64.1004L120.826 61.3148V44.1744H126.584C128.048 44.1744 129.053 44.6924 129.796 45.4385C130.029 45.6726 130.133 45.7608 130.316 46.0371C132.282 49.0112 130.436 52.9134 126.424 52.9043L124.185 52.904C123.156 52.8981 123.462 52.9092 124.421 54.4789L125.326 55.8638C126.514 57.636 127.756 59.7007 128.94 61.4638C129.129 61.7453 130.698 64.1288 130.742 64.2955H132.902C133.382 64.2799 133.233 64.1525 132.853 63.5723C132.712 63.357 132.623 63.2005 132.48 62.9863L128.066 56.2149C127.931 55.9989 127.833 55.8389 127.693 55.6295C127.583 55.4646 127.379 55.2153 127.33 55.0334C127.734 55.0247 128.309 54.8713 128.622 54.7796C129.598 54.4932 130.794 53.7349 131.476 52.9981C133.18 51.158 133.793 48.2964 132.697 45.9487C132.03 44.5199 131.196 43.6256 129.839 42.8409C129.095 42.4114 128.066 42.0455 127.01 42.0455H118.907C118.782 42.0455 118.693 42.1336 118.693 42.2583V42.2582ZM151.801 17.3996C152.01 17.5527 154.538 24.0706 154.725 24.54C154.892 24.956 155.05 25.3494 155.213 25.7566L155.693 26.9811H147.962C148.04 26.6482 150.616 20.3854 150.849 19.8025C151.002 19.4185 151.167 19.0366 151.329 18.6314L151.801 17.3996ZM142.898 34.114H145.083L146.599 30.3574C146.688 30.1352 146.761 29.9536 146.843 29.7491C146.925 29.5436 147.01 29.2981 147.109 29.1103H154.733C154.777 28.9464 154.89 28.8245 154.983 28.6676C155.087 28.4916 155.167 28.3801 155.277 28.2159C155.406 28.0225 155.679 27.4673 155.906 27.4069L158.572 34.114H160.758C160.834 33.7849 160.506 33.1697 160.331 32.7298L151.961 11.9171C151.645 11.924 151.722 11.9508 151.527 12.4416L143.065 33.3762C142.951 33.6612 142.826 33.8064 142.898 34.114V34.114ZM105.419 52.9043C105.364 53.1071 104.747 53.9785 104.556 54.2785C104.538 54.3073 104.517 54.3424 104.494 54.3768C104.427 54.4792 104.477 54.4191 104.406 54.5011V44.1744H110.164C111.437 44.1744 112.824 44.7063 113.599 45.6954C114.912 47.3727 115.135 49.3101 113.843 51.0954C113.36 51.7623 112.685 52.2637 111.917 52.5786C110.975 52.964 110.12 52.9043 108.831 52.9043C107.693 52.9043 106.556 52.9043 105.419 52.9043L105.419 52.9043ZM102.273 42.2582V64.0827C102.273 64.2101 102.309 64.2368 102.429 64.2358C102.606 64.2344 102.555 64.1664 102.86 63.7101C103.037 63.4438 103.215 63.1779 103.393 62.9116C103.567 62.6501 104.406 61.4912 104.406 61.2614V55.0334H110.59C111.566 55.0334 112.411 54.7153 113.112 54.4108L113.627 54.1265C113.777 54.0404 113.964 53.9109 114.109 53.8092C114.7 53.3921 114.904 53.1429 115.348 52.6509C115.681 52.2804 116.042 51.6173 116.26 51.1663C117.224 49.1664 116.917 46.7482 115.709 44.9191C115.61 44.7699 115.495 44.5997 115.373 44.4563C114.773 43.7575 113.997 43.0769 113.149 42.6842C112.498 42.3818 111.536 42.0454 110.59 42.0454H102.487C102.362 42.0454 102.273 42.1336 102.273 42.2582H102.273ZM160.864 42.2582V64.0827C160.864 64.2073 160.953 64.2955 161.077 64.2955H172.326C172.5 64.2955 172.894 63.5778 173.083 63.2948L173.622 62.4973C173.722 62.3341 173.702 62.3505 173.659 62.1664H162.997V54.235H169.767C169.959 54.235 170.374 53.4667 170.524 53.2337L171.063 52.4369C171.163 52.2734 171.143 52.29 171.1 52.1057H164.063C163.997 52.2307 163.121 53.6111 162.997 53.7028V44.1744H172.06C172.22 44.1744 172.208 44.0869 172.279 43.9671C172.331 43.8778 172.377 43.8039 172.444 43.706C172.577 43.5074 172.667 43.3574 172.796 43.1526C172.912 42.9672 173.02 42.8265 173.137 42.6411C173.393 42.2346 173.399 42.3005 173.339 42.0453C169.455 42.0453 165.326 42.0891 161.45 42.0443C161.18 42.0412 160.864 41.9864 160.864 42.2582H160.864ZM129.996 13.9929H137.833V33.9012C137.833 34.0286 137.868 34.0553 137.989 34.0543C138.161 34.0529 138.041 34.0928 138.167 33.9189L139.965 31.133V13.993H146.523C146.704 13.993 147.5 12.6608 147.642 12.4493C147.884 12.0896 147.921 12.1441 147.856 11.8636H131.222L130.033 13.6617C129.933 13.8253 129.953 13.8086 129.996 13.993V13.9929ZM162.41 12.0767V33.9012C162.41 34.1234 162.602 34.1189 162.833 34.1178L172.806 34.114L173.457 33.0603C173.582 32.8742 173.658 32.7284 173.787 32.5381C173.944 32.3066 174.046 32.2711 173.979 31.9847H164.543V12.0233C164.543 11.9008 164.506 11.8636 164.383 11.8636H162.624C162.499 11.8636 162.41 11.9521 162.41 12.0768V12.0767ZM135.754 42.2582V64.0826C135.754 64.21 135.789 64.2367 135.909 64.2357C136.086 64.2343 136.036 64.1663 136.34 63.7101C136.515 63.4483 137.886 61.4338 137.886 61.3148V42.2051C137.886 42.0822 137.849 42.0453 137.726 42.0453H135.967C135.842 42.0453 135.754 42.1335 135.754 42.2582ZM126.211 12.0767V33.9012C126.211 34.0286 126.246 34.0553 126.366 34.0543C126.544 34.0529 126.492 33.9845 126.797 33.5283C126.975 33.262 127.153 32.9964 127.33 32.7301C127.455 32.5429 128.343 31.2389 128.343 31.133V12.0232C128.343 11.9007 128.306 11.8635 128.183 11.8635H126.424C126.299 11.8635 126.211 11.952 126.211 12.0767H126.211ZM97.7417 12.0767V33.9012C97.7417 34.0286 97.7768 34.0553 97.8975 34.0543C98.0703 34.0529 97.9493 34.0928 98.0755 33.9189L99.874 31.133V12.0233C99.874 11.9008 99.8371 11.8636 99.714 11.8636H97.9548C97.83 11.8636 97.7417 11.9521 97.7417 12.0768V12.0767ZM43.1925 37.1725C43.3774 37.0784 43.6031 36.9669 43.8789 36.835L43.9123 36.8287C43.6177 36.9735 43.3802 37.0947 43.1887 37.196L43.1925 37.1724V37.1725ZM42.5001 36.9735L42.4998 36.9759L42.4894 36.9742L42.4835 36.9735L42.4838 36.9714C42.4835 36.9714 42.489 36.9725 42.5002 36.9735H42.5001ZM30.3882 17.0569C32.4732 15.047 36.2666 10.9095 37.0536 6.75383C35.9412 6.65037 34.7947 6.61147 33.6145 6.64169C33.1044 11.1674 31.5111 14.897 30.3882 17.0569ZM38.4629 6.92191C37.7758 10.7154 34.8524 14.4339 32.614 16.8104C35.6765 14.5571 40.5685 10.6192 41.8054 7.63397C40.7301 7.32879 39.6157 7.08993 38.4629 6.92186V6.92191ZM23.2276 20.2991C19.7475 20.6594 14.8823 20.8629 9.98483 20.0894C9.53589 20.9074 9.10644 21.7809 8.70134 22.7145C12.7942 23.9467 19.0085 22.001 23.2276 20.2991H23.2276ZM10.7502 18.777C15.7812 19.4967 20.7256 19.1853 24.0184 18.7908C17.8047 17.3788 14.7714 15.5029 13.7824 14.7866C13.5397 15.047 13.298 15.3175 13.0588 15.5987C13.0383 15.6272 13.0156 15.6539 12.9906 15.6796C12.9642 15.7105 12.9382 15.7414 12.9117 15.7727C12.1658 16.666 11.4398 17.6635 10.7502 18.777H10.7502ZM42.1454 19.5616C42.0679 19.5606 41.9914 19.5467 41.9197 19.521C41.509 19.5679 40.6585 19.9404 39.7123 20.3546C38.264 20.989 36.6168 21.7104 35.4056 21.7104H35.3618H33.772L33.982 21.4869C33.0404 21.2241 32.0048 20.7706 31.0551 20.3546C30.192 19.9769 29.4086 19.6335 28.9659 19.5408C28.8856 19.561 28.8004 19.5672 28.7131 19.5575C28.6929 19.5551 28.6731 19.5519 28.6533 19.5481C27.8041 19.9103 23.9477 23.3763 20.6551 26.7354C18.1232 29.3183 15.9982 31.7746 15.9982 32.5597C15.9982 33.6558 18.0355 36.6917 19.8347 39.3724C21.3665 41.6548 22.738 43.6981 22.738 44.555C22.738 45.4452 22.4716 46.1962 22.2202 46.9052C22.0345 47.4284 21.8589 47.9238 21.8589 48.3585C21.8589 48.7589 23.3949 51.2566 25.0918 53.8297C27.0005 56.7239 28.9802 59.6466 29.0619 59.6466L29.0964 59.6206C29.1774 59.5133 29.2841 59.4355 29.4017 59.3897C29.7077 59.1581 30.19 58.7925 30.7266 58.387C32.33 57.1752 34.3347 55.6601 35.3619 55.6601C35.3692 55.6601 35.3765 55.6604 35.3838 55.6604C35.3911 55.6604 35.3984 55.6601 35.4057 55.6601C36.4332 55.6601 38.4376 57.1752 40.0413 58.387C40.5779 58.7925 41.0602 59.1581 41.3658 59.3897C41.4837 59.4355 41.5901 59.5133 41.6712 59.6206C41.6938 59.6376 41.7056 59.6466 41.7059 59.6466C41.7873 59.6466 43.767 56.7239 45.6757 53.8297C47.1758 51.5552 48.5501 49.3397 48.8488 48.5797C48.8185 48.1679 48.799 47.936 48.7983 47.9304C48.7924 47.8582 48.7976 47.7874 48.8126 47.72C48.7444 47.46 48.6474 47.1864 48.5476 46.9052C48.2962 46.1962 48.0298 45.4452 48.0298 44.555C48.0298 43.6981 49.4013 41.6549 50.9331 39.3724C52.7319 36.6917 54.7696 33.6558 54.7696 32.5597C54.7696 32.4326 54.7137 32.2614 54.6097 32.0534C54.5721 32.0017 54.5422 31.9455 54.5206 31.8868C53.8888 30.7709 52.1296 28.7933 50.1128 26.7354L50.0411 26.6625L49.5306 26.2112L49.5804 26.1962C48.2555 24.864 46.8719 23.5416 45.6517 22.4295C45.4451 22.3757 45.265 22.2291 45.1767 22.0166C45.1729 22.008 45.1694 21.999 45.1663 21.9899C43.7339 20.7042 42.5916 19.773 42.1455 19.5616H42.1454ZM43.5694 17.501C45.3561 16.657 48.2805 14.9859 50.6976 12.2302C49.3756 11.1743 47.9536 10.2442 46.4337 9.46095C46.538 12.7809 44.767 15.8306 43.5694 17.501ZM51.7773 13.1395C48.9398 16.3809 45.4413 18.2225 43.6188 19.029C44.2781 19.514 45.0838 20.164 45.9635 20.9181C47.4849 20.2414 52.8188 17.6971 53.6328 14.9456C53.5678 14.8765 53.5027 14.8077 53.4371 14.7394C53.428 14.7304 53.419 14.721 53.4103 14.7112C52.8859 14.1647 52.3413 13.6401 51.7773 13.1395L51.7773 13.1395ZM49.0901 52.9696C47.3604 58.6345 43.624 69.652 39.4714 74.284C39.8636 74.2291 40.2506 74.1667 40.6328 74.0975C42.5217 73.7555 44.2941 73.2379 45.9507 72.566C46.0188 72.5383 46.3054 71.8952 46.723 71.2061C47.1431 70.5124 47.5589 69.8256 47.8862 69.5045C49.2851 65.5419 49.2827 58.0022 49.09 52.9696H49.0901ZM37.2104 74.5163C37.2536 74.4464 37.3095 74.3833 37.378 74.3298C41.4232 71.1887 45.3206 60.2732 47.3299 53.8775C47.1737 54.1188 47.0151 54.3614 46.8555 54.6038C44.7361 57.8167 42.2501 61.062 41.7059 61.062C41.5582 61.062 41.3655 60.9926 41.1357 60.8714C40.0935 61.5422 37.0905 63.3701 35.3838 63.3135C33.6774 63.3701 30.674 61.5421 29.6322 60.8714C29.4024 60.9926 29.2094 61.062 29.062 61.062C28.5178 61.062 26.0318 57.8167 23.9124 54.6038C23.8136 54.4541 23.7155 54.3042 23.6182 54.1548C25.7258 60.3433 29.9505 70.7349 35.5198 74.294C35.6342 74.3665 35.7204 74.4669 35.7757 74.5804C36.2604 74.5689 36.7389 74.5474 37.2105 74.5162L37.2104 74.5163ZM33.505 74.5583C27.6223 69.6722 23.4113 58.2053 21.6615 52.7324C21.7891 58.5358 22.4668 69.0149 25.6048 73C27.8644 73.8698 30.4748 74.4246 33.505 74.5583H33.505ZM50.2738 48.6424C50.504 51.8769 51.1918 63.7802 49.3443 69.6065C49.4042 69.6926 49.4573 69.7902 49.5057 69.8971L49.5067 69.8968C49.5853 70.0711 49.634 70.2641 49.6736 70.4603C50.2585 69.5725 50.9606 67.723 51.6331 65.9513C52.3529 64.0542 53.0417 62.2394 53.7132 61.4519C52.4165 54.3077 53.5477 42.7731 54.2922 36.8145C53.6183 37.9054 52.8438 39.0595 52.107 40.1573C50.7039 42.2481 49.4475 44.1202 49.4475 44.5549C49.4475 45.2094 49.6711 45.8399 49.8822 46.435C50.1103 47.0787 50.3266 47.688 50.3266 48.3585C50.3266 48.431 50.3082 48.5265 50.2737 48.6425L50.2738 48.6424ZM55.5507 38.1564C54.8295 44.2445 53.9261 54.558 55.0847 61.0925C55.1915 61.1617 55.2962 61.2529 55.3984 61.3637C55.7896 61.7862 56.0685 62.6122 56.3387 63.4129C56.4141 63.6375 56.4892 63.8593 56.5588 64.0562C56.782 63.1292 56.8227 61.6286 56.8623 60.1624C56.9135 58.2896 56.9629 56.4676 57.4497 55.5277C57.5537 55.3274 57.6677 55.1697 57.7898 55.0475L55.5507 38.1564ZM55.6025 31.0704C55.9826 31.3225 60.194 34.1081 62.9544 35.5382C62.6776 33.6244 62.2787 31.7332 61.7595 29.8889C58.1208 29.7278 55.5417 29.1949 53.7776 28.6335C54.5433 29.5358 55.1772 30.3698 55.6025 31.0704ZM64.499 36.4332C64.5748 36.5815 64.5977 36.7555 64.5556 36.9245C64.6585 37.8581 64.7333 38.7948 64.7796 39.7326C65.0577 45.3333 64.3285 50.9672 62.5485 56.0672C62.1733 57.1421 61.4222 57.1706 60.5393 56.8636C60.2698 56.7699 60.009 56.6469 59.7458 56.5227C59.2631 56.2953 58.7658 56.0609 58.7071 56.1748C58.3659 56.8328 58.3211 58.491 58.2748 60.1957C58.215 62.3931 58.1534 64.6606 57.3676 65.6536C56.9204 66.2185 56.4596 66.2297 55.9881 65.8575C55.5576 65.5179 55.2825 64.7027 54.9985 63.8607C54.8517 63.4268 54.7022 62.9837 54.5627 62.6736C54.1149 63.3979 53.547 64.8932 52.9565 66.4491C52.0187 68.9197 51.0283 71.5285 49.9542 72.1618C49.3105 72.541 48.8946 72.3417 48.5949 71.8348C48.4788 71.6387 48.4182 71.4088 48.3696 71.1679C48.2517 71.388 48.1049 71.6564 47.9356 71.9362C47.3969 72.8257 46.851 73.7271 46.4824 73.8764C44.749 74.5794 42.883 75.1231 40.8822 75.4856C38.9627 75.8332 36.9246 76.0109 34.7669 75.9995C31.0841 75.98 27.9576 75.4061 25.2898 74.4264C25.1187 74.4271 24.9479 74.3663 24.8141 74.2458C14.848 70.3242 11.4847 60.6124 9.41462 53.2414C9.25953 54.0646 9.05471 54.7851 8.71878 55.0129C8.29212 55.3017 7.90715 55.2458 7.57611 54.7587C7.30732 54.3633 6.83509 53.1821 6.36807 51.7832C5.9449 50.5153 5.51437 49.0494 5.23549 47.8231C5.10579 47.2516 5.04113 46.9582 4.97748 46.6683C4.78865 45.808 4.60888 44.9879 4.51465 44.6296C4.46491 44.5647 4.42874 44.4938 4.40475 44.4199C4.23749 44.3998 3.75587 44.6768 3.11987 44.7574C1.67363 44.9411 0.163106 45.1327 0.00904261 44.0457C-0.106062 43.2339 0.896448 42.1639 1.94838 41.0407C2.68838 40.2508 3.45859 39.4283 3.70446 38.9391C3.70344 38.929 3.70275 38.919 3.70205 38.9086C3.70173 38.9044 3.67248 38.6044 3.82966 38.0205C4.09394 34.3485 4.62353 31.1081 5.34963 28.2476L2.84003 14.2073L12.168 14.4712C15.806 10.2902 19.8477 8.36398 22.6751 7.47339C22.5618 7.20882 22.3953 6.87969 22.229 6.55157C21.9459 5.99258 21.6643 5.43601 21.5624 5.03813C21.4056 4.42396 21.5426 3.98928 22.1418 3.83647C22.7715 3.67605 24.7581 4.67948 26.3045 5.45996C26.6147 5.61689 26.8599 5.77173 27.0511 5.90054C26.8136 5.06519 26.3376 3.88158 25.9408 2.89557C25.4394 1.64981 25.0381 0.652338 25.4415 0.249908C25.7836 -0.0920853 26.1488 -0.0910137 26.5428 0.302308C26.9952 0.75403 29.1414 2.58583 30.8947 3.91732C31.8969 4.67803 32.7064 5.26445 32.8073 5.25957C36.7777 5.06305 40.4032 5.60607 43.6715 6.74317C47.7699 8.16911 51.298 10.5269 54.2343 13.5315L64.0397 13.4843L63.2552 28.3631C63.2438 28.5923 63.1234 28.7905 62.9472 28.9106C63.6719 31.3528 64.1907 33.8787 64.4991 36.4333L64.499 36.4332ZM63.1654 37.2162C61.3443 36.3732 58.5012 34.6174 56.6426 33.4307C57.8798 36.578 61.1813 45.4836 62.0353 52.9261C63.1526 48.7375 63.589 44.2601 63.3674 39.799C63.3247 38.9365 63.2575 38.0751 63.1654 37.2161V37.2162ZM5.57769 34.707C7.53855 32.0322 11.5386 28.1137 19.685 23.0516C15.8157 24.248 11.4179 25.0469 8.16451 24.0248C7.64641 25.3656 7.17729 26.8197 6.76973 28.396C6.76345 28.43 6.75476 28.4633 6.74365 28.496C6.25995 30.3854 5.86424 32.4506 5.57769 34.707ZM22.4689 23.0044C9.78043 30.5007 6.35906 35.3115 5.4438 37.4822C9.35028 34.699 14.6716 31.4961 15.0479 31.2701C15.8588 29.8463 17.635 27.7985 19.647 25.7455C20.555 24.8196 21.5188 23.8859 22.4689 23.0044H22.4689ZM15.7058 35.5104C15.2461 40.7538 14.5364 52.2734 15.9958 62.3272C17.0011 56.2065 20.2778 48.4616 20.29 48.4324L20.4576 48.0342C20.5121 47.4877 20.6947 46.9731 20.8856 46.435C21.0967 45.8399 21.3203 45.2094 21.3203 44.5549C21.3203 44.1202 20.0639 42.2481 18.6608 40.1573C17.6211 38.6082 16.5066 36.9475 15.7058 35.5105L15.7058 35.5104ZM14.6769 63.058C13.3408 54.3462 13.6521 44.4754 14.0652 38.3622C12.3578 43.2845 10.2049 50.0707 10.0985 50.4068L10.2641 51.0123C11.2405 54.5853 12.4492 59.0104 14.6769 63.058V63.058ZM8.81892 49.7552C9.28315 48.2952 11.7927 40.4347 13.4545 35.8659C11.5868 38.4598 8.77717 42.0269 5.91007 44.4306C6.04954 44.9462 6.20323 45.645 6.36212 46.3696C6.46746 46.8505 6.57596 47.3435 6.6146 47.5136C6.88516 48.7038 7.30066 50.1197 7.70822 51.3405C7.84801 51.7588 7.98501 52.1515 8.11369 52.5011C8.14187 52.2911 8.17283 52.0727 8.20513 51.8591C8.34353 50.9453 8.46974 50.1134 8.81886 49.7551L8.81892 49.7552ZM5.0686 43.2973C8.09561 40.7409 11.0761 36.8113 12.852 34.2778C10.5747 35.7048 7.43637 37.7303 5.16562 39.4309C5.10198 39.4788 5.03243 39.5142 4.96047 39.5375C4.5703 40.3031 3.76011 41.1679 2.97837 42.0026C2.16432 42.872 1.38853 43.7 1.4101 43.8521C1.45185 44.1459 2.17269 43.4563 2.94257 43.3584C3.74621 43.2563 4.52823 43.1571 5.0686 43.2973V43.2973ZM24.7174 17.5051C22.7012 16.034 20.1311 13.7942 18.415 10.9729C17.2295 11.7038 15.9982 12.6218 14.785 13.7741C15.8136 14.4911 18.7415 16.2038 24.7174 17.5051ZM19.6439 10.2702C21.8753 13.9255 25.6674 16.5507 27.461 17.6541C26.1813 15.2757 23.944 10.5584 23.123 8.81511C22.1041 9.13455 20.9159 9.59768 19.6438 10.2702H19.6439ZM60.8081 55.4544C60.6314 50.111 58.6605 43.3452 57.0355 38.6043L59.1786 54.7711C59.5583 54.8728 59.9562 55.0603 60.3494 55.2457C60.5073 55.32 60.6645 55.394 60.8081 55.4544ZM24.2302 7.85268C24.7936 9.05295 26.9127 13.553 28.2434 16.1563C28.2681 12.5502 27.6133 9.01652 27.2858 7.48154C26.8643 7.32493 26.3006 7.04026 25.6674 6.72051C24.8774 6.32156 23.9541 5.85564 23.3063 5.54697C23.3658 5.66747 23.4287 5.7914 23.4917 5.9157C23.7639 6.45352 24.0379 6.99445 24.152 7.39372C24.1993 7.55901 24.2265 7.71278 24.2303 7.85273L24.2302 7.85268ZM28.5918 6.83436C28.8728 8.0926 29.5812 11.6118 29.6528 15.3688C30.6442 13.2603 31.8011 10.1453 32.2125 6.4712C31.6467 6.19833 30.8705 5.66881 30.0419 5.03969C29.2136 4.41094 28.3032 3.67659 27.5132 3.01934C27.9294 4.06477 28.362 5.2008 28.5286 5.96671C28.6002 6.29691 28.6252 6.58956 28.5918 6.83436ZM58.7961 22.3908C57.37 24.5553 54.3823 25.9916 52.5935 26.6957C53.9414 27.3276 56.6015 28.198 61.3283 28.4553C60.7427 26.6249 60.0361 24.8487 59.2103 23.1519C59.0757 22.9012 58.9373 22.6471 58.7961 22.3908ZM51.1108 25.7354C52.4135 25.3038 56.8884 23.647 57.9744 20.9409C57.271 19.7355 56.5146 18.5331 55.7427 17.4558C55.395 16.9944 55.0357 16.5437 54.6647 16.1049C53.2505 18.7839 49.0766 21.0108 47.1269 21.9364C48.4343 23.105 49.8284 24.4279 51.1109 25.7354H51.1108ZM41.2946 18.2168C41.319 18.0936 41.3767 17.9755 41.4678 17.8766C41.4796 17.8637 45.5867 13.447 44.9625 8.77343L44.9611 8.76164C44.5734 8.59292 44.1801 8.43353 43.7809 8.28356C44.0678 11.525 39.8045 17.0093 37.4396 19.7786C38.0036 19.5619 38.5917 19.3043 39.1477 19.0609C39.9513 18.7089 40.6947 18.3835 41.2946 18.2169L41.2946 18.2168ZM42.3865 9.49733C39.9402 13.2377 34.0791 17.5384 31.7921 19.1359C32.9528 19.6438 34.2259 20.1872 35.1119 20.2806C36.2786 19.0126 41.7057 12.9673 42.3865 9.49733ZM17.2404 66.8594C17.2432 66.8733 17.2453 66.8876 17.247 66.9014C18.8654 68.8871 20.8593 70.6425 23.3529 71.9726C20.9031 66.8226 20.3533 57.607 20.2463 52.4501C18.7291 56.5942 16.5613 63.3982 17.2404 66.8594ZM41.3687 47.8344L36.1927 52.2643C35.9232 52.4945 35.5316 52.4897 35.2684 52.2695L29.3381 47.8288C29.0846 47.6389 28.9935 47.3133 29.0898 47.0289L29.0606 47.0334L27.5171 37.1724C27.3321 37.0783 27.106 36.9668 26.8306 36.8349C25.5228 36.5849 23.1401 35.9207 19.0587 34.1917C18.695 34.0389 18.5242 33.6202 18.6776 33.257C18.7753 33.0251 18.9819 32.8716 19.2131 32.8314L19.2128 32.8289L27.3237 31.3985C27.7135 31.3305 28.0852 31.5912 28.1531 31.9804C28.1572 32.0037 28.16 32.0269 28.1617 32.0499L29.0082 37.4561C29.0203 37.4925 29.0294 37.5307 29.0356 37.5703L30.4307 46.5415H40.279L41.6741 37.5703C41.6803 37.5307 41.6894 37.4925 41.7015 37.4561L42.5479 32.0499C42.5497 32.0269 42.5525 32.0037 42.5566 31.9804C42.6245 31.5912 42.9962 31.3305 43.386 31.3985L51.4969 32.8289L51.4966 32.8314C51.7278 32.8716 51.9344 33.0251 52.0321 33.257C52.1854 33.6202 52.0147 34.0389 51.651 34.1917C48.4125 35.5634 46.2437 36.2651 44.8326 36.6214L43.1582 37.3932L41.6491 47.0334L41.623 47.0296C41.647 47.1011 41.6602 47.1782 41.6602 47.2581C41.6602 47.4941 41.5454 47.7039 41.3688 47.8344H41.3687ZM55.5667 14.9348C55.953 15.3882 56.3394 15.884 56.7215 16.409C57.5067 17.4346 58.2362 18.512 58.9098 19.6334C59.4926 20.6038 60.033 21.6069 60.5309 22.6381C61.0887 23.6796 61.5835 24.6577 61.9907 25.4875L62.5489 14.9014L55.5667 14.9348ZM6.22764 25.108C7.7921 20.2111 9.71748 17.3082 10.9085 15.8465L4.53976 15.6663L6.2277 25.108H6.22764ZM35.3838 61.9036C35.3984 61.9029 35.4134 61.9029 35.428 61.9032C36.5595 61.9411 38.6717 60.7464 39.8543 60.0149C39.6418 59.8576 39.4192 59.6892 39.1887 59.5149C37.754 58.431 35.9611 57.0755 35.4057 57.0755C35.3984 57.0755 35.3911 57.0755 35.3838 57.0752C35.3765 57.0755 35.3692 57.0755 35.3619 57.0755C34.807 57.0755 33.0137 58.431 31.5793 59.5149C31.3487 59.6892 31.1261 59.8576 30.9137 60.0149C32.0963 60.7467 34.2085 61.9411 35.3397 61.9032C35.3546 61.9029 35.3692 61.9029 35.3838 61.9036ZM43.1866 37.2092C43.4036 37.1026 43.6825 36.9692 44.041 36.8029C44.1592 36.779 44.2855 36.7516 44.4197 36.721L43.1734 37.2953L43.1866 37.2092Z" fill="#2A2930"/>
</svg>
