<svg width="968" height="973" viewBox="0 0 968 973" fill="none" xmlns="http://www.w3.org/2000/svg">
<path d="M562.017 77.184C562.017 77.184 750.927 -173.009 924.793 232.297C1098.66 637.603 671.712 389.758 787.265 626.548C931.992 923.12 808.506 1113.57 458.212 1009.11C291.929 959.53 544.234 662.089 389.807 659.164C327.054 657.975 351.634 745.112 258.169 790.722C164.704 836.333 55.94 822.09 9.64999 659.969C-36.64 497.847 103.692 491.174 123.494 425.821C150.66 336.165 -3.80171 344.762 18.0195 209.684C33.2401 115.465 183.776 27.9206 314.874 197.789C426.849 342.879 562.017 77.184 562.017 77.184Z" fill="#FF4C4C"/>
</svg>
