<svg width="1113" height="1017" viewBox="0 0 1113 1017" fill="none" xmlns="http://www.w3.org/2000/svg">
<path d="M912.067 618.494C912.067 618.494 1250.36 776.437 1048.48 942.783C846.599 1109.13 686.152 709.438 528.322 920.417C349.599 1159.32 33.7022 903.448 222.956 675.939C333.924 542.542 14.1765 669.214 1.34547 515.294C-15.5599 312.497 255.212 406.83 226.767 315.044C198.321 223.259 123.728 76.902 281.444 17.3041C439.16 -42.2939 505.873 77.5661 572.645 91.8706C664.248 111.495 649.422 16.9321 785.846 27.4564C881.005 34.7974 980.751 177.541 822.361 322.297C687.075 445.937 912.067 618.494 912.067 618.494Z" fill="#FF4C4C"/>
</svg>
