<svg width="22" height="23" viewBox="0 0 22 23" fill="none" xmlns="http://www.w3.org/2000/svg"><path clip-rule="evenodd" d="M21 16.892v3.017a2.011 2.011 0 01-2.193 2.011 19.9 19.9 0 01-8.678-3.087A19.609 19.609 0 014.095 12.8a19.901 19.901 0 01-3.087-8.72A2.011 2.011 0 013.01 1.889h3.017a2.01 2.01 0 012.011 1.73c.128.965.364 1.913.704 2.825.276.735.1 1.564-.452 2.122L7.012 9.843a16.09 16.09 0 006.033 6.034l1.277-1.277a2.011 2.011 0 012.122-.453c.912.34 1.86.576 2.826.704A2.011 2.011 0 0121 16.892z" stroke="#BD274C" stroke-width="2" stroke-linecap="round" stroke-linejoin="round"/></svg>