<svg width="497" height="102" viewBox="0 0 497 102" fill="none" xmlns="http://www.w3.org/2000/svg">
<path d="M443.284 71.8952C443.285 71.8969 443.286 71.8985 443.287 71.9002L442.857 72.1538C445.589 76.5495 449.277 78.7473 453.922 78.7473C458.476 78.7473 462.074 76.5495 464.715 72.1538C467.447 67.6667 468.814 60.6154 468.814 51C468.814 41.3846 467.447 34.3791 464.715 29.9835C462.074 25.4963 458.476 23.2527 453.922 23.2527C449.277 23.2527 445.589 25.4963 442.857 29.9835L443.285 30.241C443.285 30.2413 443.285 30.2416 443.285 30.242M443.284 71.8952C445.938 76.1603 449.474 78.2473 453.922 78.2473C458.276 78.2473 461.722 76.1642 464.286 71.8963L464.288 71.8938C466.947 67.5264 468.314 60.5888 468.314 51C468.314 41.4099 466.947 34.5211 464.29 30.2475L464.284 30.2372C461.717 25.8765 458.271 23.7527 453.922 23.7527C449.478 23.7527 445.94 25.8816 443.285 30.242M443.284 71.8952C440.715 67.5255 439.395 60.5866 439.395 51C439.395 41.409 440.716 34.5176 443.285 30.242M443.284 71.8952C443.283 71.8934 443.282 71.8917 443.281 71.8899L443.285 30.242M86.2482 24.989H86.7482V24.489V2.92308V2.42308H86.2482H1H0.5V2.92308V24.489V24.989H1H29.8724V99.0769V99.5769H30.3724H57.0124H57.5124V99.0769V24.989H86.2482ZM116.819 94.9845L116.822 94.9856C125.007 99.3317 134.196 101.5 144.379 101.5C154.562 101.5 163.706 99.3319 171.802 94.9848C179.984 90.6401 186.381 84.626 190.983 76.9455C195.679 69.2613 198.023 60.6083 198.023 51C198.023 41.3917 195.679 32.7388 190.983 25.0546C186.381 17.3741 179.984 11.36 171.802 7.01524C163.706 2.66816 154.562 0.5 144.379 0.5C134.196 0.5 125.007 2.66828 116.822 7.01443L116.819 7.01554C108.728 11.3606 102.332 17.3743 97.6398 25.0525L97.6376 25.0562C93.0337 32.7404 90.7357 41.3927 90.7357 51C90.7357 60.6073 93.0337 69.2596 97.6375 76.9438L97.6398 76.9475C102.332 84.6257 108.728 90.6394 116.819 94.9845ZM166.344 36.952L166.346 36.9561C168.577 40.9926 169.7 45.669 169.7 51C169.7 56.3296 168.577 61.0529 166.346 65.1828C164.111 69.2273 161.077 72.3649 157.242 74.6068C153.407 76.8485 149.123 77.9725 144.379 77.9725C139.635 77.9725 135.351 76.8485 131.516 74.6068C127.682 72.3651 124.648 69.2276 122.413 65.1834C120.181 61.0534 119.059 56.3299 119.059 51C119.059 45.669 120.182 40.9926 122.412 36.9561L122.414 36.952C124.65 32.8155 127.684 29.6337 131.516 27.3932C135.351 25.1515 139.635 24.0275 144.379 24.0275C149.123 24.0275 153.407 25.1515 157.242 27.3932C161.075 29.6337 164.108 32.8155 166.344 36.952ZM302.242 2.92308V2.42308H301.742H211.986H211.486V2.92308V99.0769V99.5769H211.986H238.626H239.126V99.0769V24.989H274.466V99.0769V99.5769H274.966H301.742H302.242V99.0769V2.92308ZM397.826 2.92308V2.42308H397.326H352.516H352.016V2.92308V23.9396V24.4396H352.516H369.776V99.0769V99.5769H370.276H397.326H397.826V99.0769V2.92308ZM416.583 78.1348L416.586 78.1413C420.266 85.7259 425.336 91.5256 431.801 95.5188C438.263 99.5098 445.642 101.5 453.922 101.5C462.113 101.5 469.446 99.5093 475.907 95.5188C482.373 91.5251 487.398 85.7244 490.987 78.1384C494.668 70.4568 496.5 61.4058 496.5 51C496.5 40.5953 494.669 31.5897 490.987 23.9987C487.399 16.3226 482.374 10.4754 475.907 6.4812C469.446 2.49072 462.113 0.5 453.922 0.5C445.642 0.5 438.263 2.49017 431.801 6.4812C425.334 10.4753 420.264 16.3222 416.585 23.9982L416.584 24.0005C412.994 31.5908 411.208 40.5958 411.208 51C411.208 61.4045 412.994 70.4541 416.583 78.1348Z" stroke="#BD274C"/>
</svg>
